<?xml version="1.0" encoding="UTF-8"?>
<!DOCTYPE svg PUBLIC "-//W3C//DTD SVG 1.1//EN" "http://www.w3.org/Graphics/SVG/1.1/DTD/svg11.dtd">
<!-- Creator: CorelDRAW 2021 (64-Bit) -->
<svg xmlns="http://www.w3.org/2000/svg" xml:space="preserve" width="2.01389in" height="2.01389in" version="1.1" style="shape-rendering:geometricPrecision; text-rendering:geometricPrecision; image-rendering:optimizeQuality; fill-rule:evenodd; clip-rule:evenodd"
viewBox="0 0 155.47 155.47"
 xmlns:xlink="http://www.w3.org/1999/xlink"
 xmlns:xodm="http://www.corel.com/coreldraw/odm/2003">
 <defs>
  <style type="text/css">
   <![CDATA[
    .str1 {stroke:black;stroke-width:1.07;stroke-linecap:round;stroke-linejoin:round;stroke-miterlimit:22.9256}
    .str0 {stroke:black;stroke-width:1.07;stroke-linecap:round;stroke-linejoin:round;stroke-miterlimit:22.9256}
    .fil12 {fill:none;fill-rule:nonzero}
    .fil0 {fill:white}
    .fil13 {fill:black;fill-rule:nonzero}
    .fil2 {fill:#FEFEFE}
    .fil11 {fill:#FFCC29}
    .fil5 {fill:#636439}
    .fil6 {fill:#423F19}
    .fil1 {fill:#626211}
    .fil8 {fill:#62800F}
    .fil7 {fill:#799C15}
    .fil9 {fill:#A09B09}
    .fil3 {fill:#A29C0B}
    .fil4 {fill:#C3C56D}
    .fil10 {fill:#FFCC29;fill-rule:nonzero}
   ]]>
  </style>
 </defs>
 <g id="Layer_x0020_1">
  <metadata id="CorelCorpID_0Corel-Layer"/>
  <path class="fil0 str0" d="M77.73 0.54c42.64,0 77.2,34.56 77.2,77.2 0,42.63 -34.56,77.2 -77.2,77.2 -42.63,0 -77.2,-34.56 -77.2,-77.2 0,-42.64 34.56,-77.2 77.2,-77.2z"/>
  <path class="fil1" d="M41.21 81.89c0.5,-0 0.92,-0.05 1.37,-0.18 0.24,-0.07 0.95,-0.33 1.05,-0.49 -1.12,-0.04 -2.46,-1.22 -3.3,-1.9l-1.17 -1.08c-0.13,-0.13 -0.24,-0.23 -0.37,-0.36 -0.14,-0.14 -0.22,-0.25 -0.37,-0.39l-0.71 -0.78c-0.11,-0.11 -0.24,-0.29 -0.35,-0.41 -0.9,-0.99 -2.18,-2.73 -2.87,-3.84 -0.7,-1.12 -1.75,-2.86 -1.66,-4.27 -0.17,0.1 -0.5,0.64 -0.63,0.88 -0.61,1.16 -0.66,2.62 -0.43,3.89 0.36,1.94 1.18,3.33 2.18,4.7 0.11,0.15 0.21,0.28 0.34,0.42 0.65,0.72 0.7,0.8 1.51,1.52 1.3,1.14 3.4,2.26 5.4,2.27z"/>
  <path class="fil1" d="M31.66 80.58c-0.09,0.73 -0.27,1.59 -0.4,2.32 -0.06,0.31 -0.41,2.21 -0.4,2.36l4.5 0c0,-0.24 -0.77,-4.68 -0.8,-4.74 -0.07,-0.03 -0.3,0.06 -0.41,0.08 -0.64,0.11 -1.25,0 -1.77,-0.38 -0.56,-0.41 -0.6,-0.83 -0.74,-0.95 -0.1,0.11 -0.15,0.14 -0.26,0.23l-0.55 0.5c-0.43,0.35 -0.25,0.87 0.14,0.92 0.38,0.05 0.5,-0.22 0.69,-0.34z"/>
  <path class="fil1" d="M39.46 78.13c0.1,0.16 1.46,1.32 1.68,1.49 0.22,0.16 0.4,0.3 0.62,0.46 0.52,0.37 2.7,1.81 2.3,-0.17 -0.34,-1.7 -1.65,-3.48 -2.6,-4.9 -0.08,-0.11 -0.39,-0.55 -0.46,-0.61 -0.03,0.04 -1.49,3.52 -1.54,3.73z"/>
  <path class="fil1" d="M35.11 72.87l3.96 -0.8c-0.08,-0.17 -1.58,-1.68 -1.83,-1.88 -0.11,-0.1 -0.16,-0.13 -0.29,-0.26l-0.57 -0.48c-1.44,-1.24 -4.42,-3.05 -2.83,0.67 0.2,0.47 1.19,2.35 1.56,2.76z"/>
  <path class="fil1" d="M35.7 73.72c0.08,0.15 0.23,0.33 0.33,0.47 0.13,0.17 0.24,0.31 0.37,0.48 0.36,0.49 0.74,0.92 1.13,1.38l0.4 0.45c0.13,0.15 0.7,0.81 0.81,0.87l1.6 -3.84c-0.06,-0.12 -0.46,-0.58 -0.56,-0.67l-4.07 0.85z"/>
  <path class="fil1" d="M35.34 79.54c-0.29,-0.25 -0.46,-0.45 -0.67,-0.64 -0.28,-0.24 -0.95,-1.1 -1.19,-1.43 -0.15,-0.2 -0.42,-0.58 -0.53,-0.81 -0.32,0.13 -0.77,0.76 -0.92,1.24 -0.21,0.69 -0.08,1.25 0.27,1.72 0.46,0.64 1.55,0.8 2.39,0.39 0.22,-0.11 0.56,-0.3 0.65,-0.46z"/>
  <path class="fil1" d="M41.03 71.9c-0.52,0.08 -5.7,1.16 -5.76,1.2l0.28 0.41 5.51 -1.15c-0.1,0.32 -0.88,2.15 -1.07,2.61 -0.16,0.38 -1.03,2.42 -1.06,2.63 0.16,0.11 0.23,0.23 0.36,0.33l2.24 -5.45c0.85,0.05 0.9,-0.71 0.63,-1.03 -0.15,-0.17 -0.43,-0.3 -0.73,-0.17 -0.26,0.11 -0.33,0.3 -0.4,0.62z"/>
  <path class="fil1" d="M29.44 86.42l7.33 -0c-0,-0.43 -0.03,-0.66 -0.3,-0.84 -0.26,-0.17 -0.69,-0.12 -1.03,-0.12l-4.61 0c-0.93,0 -1.38,-0.1 -1.38,0.95z"/>
  <path class="fil1" d="M32.74 78.93c-0.31,0.16 -0.1,0.62 0.23,0.47 0.28,-0.13 0.1,-0.63 -0.23,-0.47z"/>
  <path class="fil1" d="M78.6 49.98c-0.55,-0.56 -0.9,-0.86 -1.64,-1.1 -0.18,-0.06 -0.32,-0.06 -0.49,-0.17l-0.02 -0.46c0.56,-0.11 1.87,0.21 2.22,-0.13 0.25,-0.24 0.17,-1.9 0.18,-2.32l0.06 -2.32 0.95 -0.01 0.06 -2.83 -0.97 -0.04c-0.06,-0.36 0.02,-2.61 0.03,-3.29 0.02,-1.6 0.19,-1.26 -3.15,-1.31 -0.23,-0 -2.81,-0.11 -2.94,0.02 -0.35,0.34 -0.24,0.66 -0.25,1.16 -0.01,0.67 0,2.97 -0.07,3.31l-1.04 0.01 -0.06 2.83 1.06 0.04c0.13,0.77 -0.25,4.3 0.09,4.66 0.33,0.34 1.58,0.08 2.15,0.2l-0.03 0.5c-1.05,0.32 -1.23,0.32 -2.11,1.17 -0.48,0.47 -0.86,1.36 -0.77,1.81 0.3,0.06 2.29,0.01 2.36,0.08 0.28,0.29 0.46,0.57 0.67,0.84 0.12,0.16 0.23,0.26 0.29,0.42 0.01,0.03 0.02,0.05 0.02,0.07 -0.01,0.04 -0.02,0.08 -0.02,0.12 -0,0.22 0.17,0.39 0.39,0.39 0.21,0 0.39,-0.17 0.39,-0.39 0,-0.07 -0.02,-0.13 -0.05,-0.19 0,-0.13 0.03,-0.1 0.4,-0.58 0.51,-0.65 0.43,-0.69 0.93,-0.67 0.46,0.02 1.7,0.08 2.07,0.01 0.1,-0.45 -0.25,-1.35 -0.72,-1.83zm-3.02 2.86c0.05,0 0.1,0.01 0.14,0.03l0.78 -1.12 -1.89 -0.02 0.83 1.13c0.04,-0.02 0.09,-0.03 0.14,-0.03z"/>
  <path class="fil1" d="M78.09 35.06c-0.2,-0.21 -1.86,-0.13 -2.23,-0.14 -2.06,-0.03 -2.49,-0.31 -2.29,0.77l4.55 0.09c0.03,-0.16 0.09,-0.6 -0.03,-0.72z"/>
  <polygon class="fil1" points="71.39,41.08 69.71,41.04 69.66,42.8 71.34,42.84 "/>
  <polygon class="fil1" points="81.74,41.24 80.06,41.2 80.01,42.96 81.69,43 "/>
  <polygon class="fil1" points="85.38,41.3 83.71,41.25 83.66,43.01 85.33,43.06 "/>
  <polygon class="fil1" points="94.49,41.44 92.81,41.39 92.77,43.15 94.44,43.2 "/>
  <polygon class="fil1" points="92.67,41.41 90.99,41.37 90.95,43.12 92.62,43.17 "/>
  <polygon class="fil1" points="67.74,41.03 66.07,40.98 66.02,42.74 67.7,42.79 "/>
  <polygon class="fil1" points="69.56,41.06 67.89,41.01 67.84,42.77 69.52,42.81 "/>
  <polygon class="fil1" points="83.56,41.27 81.88,41.22 81.84,42.98 83.51,43.03 "/>
  <polygon class="fil1" points="60.46,40.92 58.78,40.87 58.73,42.63 60.41,42.68 "/>
  <polygon class="fil1" points="58.63,40.89 56.96,40.84 56.91,42.6 58.59,42.65 "/>
  <polygon class="fil1" points="64.1,40.97 62.42,40.93 62.38,42.69 64.05,42.73 "/>
  <polygon class="fil1" points="90.85,41.38 89.17,41.34 89.12,43.1 90.8,43.14 "/>
  <polygon class="fil1" points="65.92,41 64.25,40.95 64.2,42.71 65.87,42.76 "/>
  <polygon class="fil1" points="89.03,41.36 87.35,41.31 87.3,43.07 88.98,43.11 "/>
  <polygon class="fil1" points="87.2,41.33 85.53,41.28 85.48,43.04 87.16,43.09 "/>
  <polygon class="fil1" points="62.28,40.94 60.6,40.9 60.55,42.66 62.23,42.7 "/>
  <path class="fil1" d="M77.93 55.68c-0.34,0.31 -0.85,0.62 -1.21,0.74 -0.79,0.28 -1.62,0.26 -2.4,-0.04 -0.34,-0.13 -0.87,-0.45 -1.19,-0.78l-0.34 0.33c1.52,1.57 3.9,1.61 5.47,0.08l-0.33 -0.34z"/>
  <path class="fil1" d="M81.77 39.42c-0.26,-0.05 -1.29,-0.16 -1.55,0.1 -0.21,0.21 -0.15,0.51 -0.16,0.74 -0,0.28 -0.04,0.53 0.01,0.79l1.66 0.05 0.05 -1.68z"/>
  <path class="fil1" d="M81.71 43.15l-1.68 -0.05c-0.05,0.27 -0.03,0.5 -0.03,0.76 -0.01,0.42 -0.09,0.56 0.21,0.87 0.13,0.13 1.26,0.1 1.45,0.06l0.05 -1.66z"/>
  <polygon class="fil1" points="87.17,43.23 85.5,43.19 85.45,44.86 87.13,44.91 "/>
  <polygon class="fil1" points="87.23,39.5 85.56,39.46 85.51,41.14 87.19,41.18 "/>
  <polygon class="fil1" points="85.35,43.2 83.68,43.16 83.63,44.83 85.31,44.88 "/>
  <polygon class="fil1" points="85.41,39.48 83.73,39.43 83.69,41.11 85.36,41.15 "/>
  <polygon class="fil1" points="83.59,39.45 81.91,39.4 81.87,41.08 83.54,41.13 "/>
  <polygon class="fil1" points="90.87,39.56 89.2,39.52 89.15,41.19 90.83,41.24 "/>
  <polygon class="fil1" points="69.54,42.96 67.86,42.91 67.81,44.59 69.49,44.64 "/>
  <polygon class="fil1" points="83.53,43.18 81.85,43.13 81.81,44.81 83.49,44.85 "/>
  <polygon class="fil1" points="67.71,42.93 66.04,42.89 65.99,44.56 67.67,44.61 "/>
  <polygon class="fil1" points="65.89,42.91 64.22,42.86 64.17,44.53 65.85,44.58 "/>
  <polygon class="fil1" points="69.59,39.23 67.92,39.19 67.87,40.86 69.55,40.91 "/>
  <polygon class="fil1" points="67.77,39.21 66.1,39.16 66.05,40.84 67.72,40.88 "/>
  <polygon class="fil1" points="60.43,42.82 58.75,42.78 58.7,44.45 60.38,44.5 "/>
  <polygon class="fil1" points="62.25,42.85 60.57,42.8 60.53,44.48 62.2,44.52 "/>
  <polygon class="fil1" points="65.95,39.18 64.27,39.13 64.23,40.81 65.9,40.85 "/>
  <polygon class="fil1" points="90.82,43.29 89.14,43.24 89.1,44.92 90.77,44.96 "/>
  <polygon class="fil1" points="92.64,43.32 90.96,43.27 90.92,44.95 92.59,44.99 "/>
  <polygon class="fil1" points="62.31,39.12 60.63,39.08 60.58,40.75 62.26,40.8 "/>
  <polygon class="fil1" points="92.7,39.59 91.02,39.54 90.98,41.22 92.65,41.27 "/>
  <polygon class="fil1" points="60.48,39.09 58.81,39.05 58.76,40.73 60.44,40.77 "/>
  <polygon class="fil1" points="64.13,39.15 62.45,39.1 62.41,40.78 64.08,40.83 "/>
  <polygon class="fil1" points="64.07,42.88 62.39,42.83 62.35,44.51 64.02,44.55 "/>
  <polygon class="fil1" points="89,43.26 87.32,43.21 87.27,44.89 88.95,44.94 "/>
  <polygon class="fil1" points="89.05,39.53 87.38,39.49 87.33,41.16 89.01,41.21 "/>
  <path class="fil1" d="M71.27 39.38c-0.22,-0.22 -1.24,-0.2 -1.53,-0.15l-0.05 1.66 1.68 0.05c0.06,-0.31 0.12,-1.33 -0.1,-1.55z"/>
  <path class="fil1" d="M58.6 42.79l-1.67 -0.05c-0.06,0.31 -0.12,1.33 0.1,1.55 0.22,0.22 1.24,0.2 1.53,0.15l0.05 -1.66z"/>
  <path class="fil1" d="M58.66 39.07c-0.32,-0.06 -1.33,-0.11 -1.55,0.1 -0.22,0.22 -0.2,1.24 -0.15,1.53l1.66 0.05 0.05 -1.68z"/>
  <path class="fil1" d="M94.44 43.34l-1.66 -0.05 -0.05 1.68c0.31,0.06 1.33,0.12 1.55,-0.1 0.21,-0.21 0.15,-0.51 0.16,-0.74 0,-0.28 0.04,-0.53 -0.01,-0.79z"/>
  <path class="fil1" d="M94.37 39.74c-0.21,-0.21 -0.51,-0.15 -0.74,-0.16 -0.28,-0 -0.53,-0.04 -0.79,0.01l-0.05 1.66 1.67 0.05c0.05,-0.27 0.03,-0.5 0.03,-0.77 0,-0.24 0.08,-0.57 -0.13,-0.79z"/>
  <path class="fil1" d="M71.34 42.99l-1.66 -0.05 -0.05 1.68c0.27,0.05 0.5,0.03 0.77,0.03 0.85,0.01 0.93,-0.02 0.94,-0.88 0,-0.28 0.04,-0.53 -0.01,-0.79z"/>
  <path class="fil1" d="M77.2 54.92c-0.66,0.61 -1.67,0.83 -2.49,0.49 -0.2,-0.08 -0.64,-0.36 -0.82,-0.54l-0.34 0.33c1.12,1.15 2.83,1.18 3.97,0.06l-0.32 -0.34z"/>
  <path class="fil1" d="M76.43 54.12c-0.56,0.46 -1.2,0.45 -1.74,-0.03l-0.34 0.33c0.68,0.7 1.7,0.71 2.4,0.04l-0.33 -0.34z"/>
  <polygon class="fil2" points="77.41,37.67 74.06,37.64 74,43.76 77.36,43.79 "/>
  <polygon class="fil2" points="77.57,38.38 77.96,38.38 77.91,43.09 77.53,43.09 "/>
  <polygon class="fil2" points="78.32,38.38 78.12,38.38 78.08,43.1 78.27,43.1 "/>
  <polygon class="fil2" points="73.89,38.34 73.5,38.34 73.46,43.06 73.85,43.06 "/>
  <polygon class="fil2" points="73.14,38.34 73.34,38.34 73.29,43.06 73.1,43.05 "/>
  <path class="fil1" d="M114.55 55.8c-0.03,0 -0.07,-0.01 -0.1,-0.01 -0.04,-0 -0.07,-0.01 -0.1,-0.01 -0.07,-0.01 -0.14,-0.02 -0.21,-0.02 -0.04,-0 -0.06,-0.01 -0.1,-0.01 -0.03,-0 -0.07,-0.01 -0.1,-0.01 -0.13,-0.01 -0.47,-0.06 -0.62,-0.08 -0.08,-0.01 -0.35,-0.05 -0.42,-0.05 -0.1,0.15 -0.15,0.21 -0.22,0.39 -0.22,0.54 -0.08,1.08 0.23,1.54 0.08,0 0.28,-0.04 0.37,-0.05l0.18 -0.02c0.07,-0.01 0.13,-0.02 0.19,-0.02 0.49,-0.07 1.01,-0.13 1.5,-0.2 0.37,-0.05 0.77,-0.09 1.13,-0.15 0.13,-0.02 0.67,-0.08 0.74,-0.11 0.02,-0.01 0.05,-0.02 0.07,-0.04 0.07,-0.04 0.12,-0.1 0.16,-0.16 0.09,-0.14 0.09,-0.34 0.01,-0.49 -0.03,-0.05 -0.05,-0.08 -0.1,-0.12 -0.13,-0.13 -0.31,-0.12 -0.5,-0.14 -0.07,-0.01 -0.12,-0.02 -0.2,-0.02l0 -0.98 -1.92 0 0 0.76zm-12.5 -0.51c0,0.04 0.05,0.1 0.06,0.14 0.07,0.14 0.12,0.27 0.17,0.43 0.04,0.13 0.06,0.27 0.08,0.42 0.02,0.11 0.02,0.35 0.01,0.47 -0.03,0.2 -0.03,0.28 -0.08,0.5 -0.05,0.19 -0.12,0.39 -0.21,0.57 -0.08,-0 -0.16,-0.02 -0.24,-0.03 -0.04,-0 -0.08,-0.01 -0.12,-0.02 -0.03,-0.01 -0.09,-0.02 -0.13,-0.02 0.05,0.07 0.12,0.06 0.18,0.24 0.08,0.25 0.06,0.6 0.02,0.85 -0.06,0.33 -0.11,0.65 -0.18,0.98 -0.01,0.04 -0.02,0.07 -0.02,0.11 -0.04,0.22 -0.09,0.44 -0.12,0.66 -0.02,0.15 -0.04,0.3 -0.06,0.47 -0.01,0.07 -0.01,0.16 -0.02,0.23 -0,0.04 -0.01,0.09 -0.01,0.12l-0.03 0.36c-0,0.08 0,0.18 -0.01,0.25l-0.03 0.48c-0,0.04 0,0.08 0,0.12l-0.04 0.87c0,0.17 -0.02,0.33 -0.02,0.51 0,0.05 -0.01,0.07 -0.01,0.12l-0.05 1.51c0.01,0.04 0.02,0.07 0.04,0.1 0.04,0.07 0.11,0.09 0.18,0.1l0.17 0c0.09,0 0.14,-0.06 0.19,-0.12 0.05,-0.07 0.09,-0.12 0.13,-0.18l0.4 -0.55c0.04,-0.06 0.11,-0.12 0.12,-0.19 0.01,-0.06 0.01,-0.24 -0,-0.31 -0.02,-0.13 0,-0.86 0,-1.02 0,-0.05 0.01,-0.06 0.01,-0.11 0,-0.04 -0,-0.08 0,-0.12 0.01,-0.06 0.02,-0.16 0.02,-0.22 -0,-0.11 0.05,-0.76 0.07,-0.89 0.05,-0.43 0.08,-0.85 0.15,-1.27 0.04,-0.21 0.05,-0.41 0.1,-0.61 0.05,-0.19 0.07,-0.4 0.12,-0.6 0.11,-0.43 0.28,-0.79 0.59,-1.08 0.19,-0.18 0.43,-0.32 0.69,-0.38 0.04,-0.01 0.06,0 0.1,0.01 -0.01,0.07 -0.02,0.13 -0.02,0.21 0,0.42 0.23,0.84 0.57,1.07l0.21 0.12c0.29,0.14 0.61,0.12 0.92,0.12l0 0.47c0,0 0,0 0,0 -0.01,0 -0.01,0 -0.02,0.01 -0.04,0.02 -0.08,0.04 -0.12,0.06 -0.02,0.01 -0.03,0.03 -0.05,0.04 -0,0 -0,0 -0.01,0.01 -0,0 -0,0 -0,0l-0.06 0.08c-0,0.01 -0,0.01 -0.01,0.01 -0.04,0.07 -0.07,0.17 -0.07,0.26l-0.56 0c-0.04,0 -0.09,0.01 -0.13,0.02l-0.08 0.03c-0.01,0 -0.01,0.01 -0.02,0.01 -0.01,0.01 -0.03,0.01 -0.04,0.02 -0.02,0.01 -0.03,0.02 -0.05,0.04l-0.02 0.02c-0.05,0.05 -0.08,0.1 -0.1,0.16 -0.02,0.05 -0.03,0.1 -0.03,0.16l0 1.44c0,0.05 0.01,0.1 0.03,0.15 0,0.02 0.01,0.03 0.02,0.04 0.01,0.02 0.03,0.05 0.04,0.07 0.01,0.01 0.02,0.03 0.03,0.04l0.04 0.04c0.03,0.03 0.08,0.06 0.12,0.08 0.04,0.02 0.09,0.03 0.14,0.04 0.01,0 0.01,0 0.03,0 0.01,0 0.02,0 0.03,0l0 0 2.78 0c0.05,0 0.1,-0.01 0.15,-0.03 0.03,-0.01 0.06,-0.02 0.08,-0.04 0.02,-0.01 0.04,-0.02 0.05,-0.04 0.02,-0.01 0.03,-0.03 0.05,-0.04 0.02,-0.02 0.04,-0.04 0.05,-0.06 0,-0 0,-0.01 0.01,-0.01l0.03 -0.05c0.02,-0.04 0.04,-0.1 0.05,-0.15 0,-0.02 0,-0.03 0,-0.05l0 -0 0 -1.44c0,-0.06 -0.01,-0.12 -0.04,-0.17 -0.01,-0.03 -0.03,-0.05 -0.04,-0.08 -0,-0.01 -0.01,-0.01 -0.01,-0.02l-0.05 -0.06c-0,-0 -0,-0 -0,-0l-0.05 -0.04c-0.04,-0.03 -0.07,-0.05 -0.11,-0.07 -0.01,-0 -0.01,-0.01 -0.02,-0.01 -0.05,-0.02 -0.1,-0.03 -0.15,-0.03l-0.56 0c0,-0.1 -0.03,-0.18 -0.07,-0.25 -0.01,-0.02 -0.02,-0.04 -0.04,-0.05 -0.01,-0.01 -0.02,-0.03 -0.04,-0.04 -0,-0 -0,-0 -0.01,-0.01 -0.05,-0.05 -0.11,-0.08 -0.18,-0.11 -0,-0 -0,-0.01 -0,-0.02l0 -0.46c0.32,0 0.62,0.02 0.9,-0.11 0.11,-0.05 0.21,-0.11 0.3,-0.18 0.08,-0.06 0.14,-0.13 0.2,-0.2 0.2,-0.25 0.29,-0.54 0.29,-0.86 0,-0.06 -0.01,-0.11 -0.02,-0.16 0.09,-0.04 0.28,0.04 0.37,0.08 0.11,0.05 0.21,0.11 0.31,0.18 0.05,0.04 0.09,0.07 0.13,0.11 0.06,0.06 0.12,0.12 0.17,0.18 0.21,0.27 0.34,0.56 0.43,0.92 0.06,0.27 0.11,0.54 0.16,0.81l0.09 0.63c0.04,0.22 0.05,0.43 0.08,0.65 0.01,0.08 0.02,0.14 0.02,0.22l0.04 0.45c0.02,0.19 0.04,0.48 0.05,0.68 0.01,0.14 0.02,0.21 0.02,0.35 0,0.05 0.01,0.06 0.01,0.12 0,0.2 0.03,0.62 0,0.81 -0.01,0.1 0.01,0.23 -0,0.33 -0.01,0.16 0.05,0.2 0.15,0.33 0.03,0.03 0.05,0.07 0.07,0.1l0.43 0.58c0.07,0.1 0.13,0.13 0.2,0.13l0.18 0c0.11,0 0.18,-0.08 0.2,-0.18 0.02,-0.08 -0,-0.27 -0,-0.36 0,-0.04 -0,-0.09 0,-0.13 0,-0.06 -0.01,-0.08 -0.01,-0.12 -0,-0.04 0,-0.08 0,-0.12 0,-0.05 -0.01,-0.07 -0.01,-0.12 0,-0.1 -0.01,-0.16 -0.01,-0.25 0,-0.04 0,-0.08 0,-0.12 0,-0.06 -0.01,-0.07 -0.01,-0.12 0,-0.17 -0.02,-0.34 -0.02,-0.51 0,-0.05 -0.01,-0.07 -0.01,-0.12 -0,-0.04 0,-0.09 0,-0.13 -0,-0.04 -0.01,-0.06 -0.01,-0.12l-0.01 -0.26c-0,-0.1 -0.02,-0.26 -0.02,-0.37l-0.05 -1c-0.01,-0.16 -0.01,-0.32 -0.04,-0.48 -0.01,-0.04 -0,-0.08 -0.01,-0.12 -0,-0.03 -0.01,-0.09 -0.01,-0.12 -0.03,-0.54 -0.23,-1.34 -0.33,-1.88 -0.07,-0.35 -0.21,-1.13 0.08,-1.39 0.02,-0.02 0.04,-0.03 0.06,-0.05 -0.03,0 -0.1,0.01 -0.13,0.01l-0.42 0.05c-0.01,-0.06 -0.09,-0.2 -0.11,-0.27 -0.05,-0.15 -0.1,-0.29 -0.13,-0.45 -0.1,-0.53 -0.04,-1.04 0.15,-1.52l0.09 -0.2c0.02,-0.03 0.03,-0.04 0.04,-0.07 -0.04,-0.02 -0.45,-0.08 -0.54,-0.09l-0.8 -0.15c-0.08,-0.02 -0.17,-0.04 -0.26,-0.06 -0.35,-0.07 -0.68,-0.17 -1.03,-0.24 -0.37,-0.07 -0.75,-0.12 -1.13,-0.13 -0.04,-0 -0.04,-0 -0.07,-0.01 -0.03,-0 -0.06,0 -0.08,-0l-0.31 -0.01c-0.06,0 -0.09,-0.01 -0.16,-0.01 -0.24,0 -0.51,0.01 -0.76,0.03 -0.05,0 -0.09,0 -0.15,0.01 -0.04,0 -0.09,0.01 -0.14,0.02 -0.29,0.02 -0.67,0.08 -0.95,0.15l-0.77 0.18c-0.09,0.02 -0.17,0.03 -0.26,0.05 -0.34,0.08 -0.73,0.13 -1.07,0.2 -0.09,0.02 -0.19,0.03 -0.28,0.05zm-5.65 0.71c-0.1,0.01 -0.21,0.03 -0.31,0.03 -0.05,0 -0.1,0.01 -0.16,0.02 -0.26,0.01 -0.56,0.36 -0.34,0.73 0.05,0.09 0.18,0.19 0.3,0.21l0.46 0.06c0.1,0.01 0.2,0.02 0.3,0.04l1.05 0.14c0.03,0 0.05,0 0.08,0.01 0.03,0 0.05,0.01 0.07,0.01l1.8 0.24c0.03,0 0.05,0 0.08,0.01 0.07,0.01 0.17,0.03 0.23,0.03 0.11,-0.2 0.11,-0.15 0.22,-0.43 0.19,-0.47 0.13,-1.02 -0.17,-1.43 -0.06,-0.08 -0.05,-0.07 -0.3,-0.03l-1.37 0.17 0 -0.76 -1.91 0 0 0.97zm18.85 -1.9l-0.06 0 0 0.22 -0.51 -0.07c-0.16,-0.01 -0.53,-0.06 -0.66,-0.06l-0.27 -0.02c-0.05,-0 -0.1,0 -0.15,0 -0.4,-0.03 -0.65,-0.01 -1.02,-0.01 -0.08,0 -0.13,0.01 -0.2,0.01 -0.03,0 -0.07,-0 -0.1,0l-0.29 0.02c-0.06,0.01 -0.12,0.01 -0.19,0.02l-0.74 0.08c-0.03,0 -0.05,0.01 -0.08,0.02 -0.15,0.01 -0.55,0.09 -0.7,0.13 -0.14,0.03 -0.2,0.02 -0.2,0.14 0,0.1 0.15,0.09 0.23,0.11 0.05,0.01 0.1,0.01 0.15,0.02l0.46 0.05c0.06,0.01 0.1,0.01 0.16,0.01 0.04,0.01 0.12,0.01 0.16,0.02 0.21,0.01 0.43,0.03 0.66,0.03 0.06,-0 0.1,0.01 0.16,0.01 0.28,-0 0.59,0.02 0.87,0 0.05,-0 0.12,-0 0.17,-0 0.07,0 0.1,-0.01 0.17,-0.01 0.33,0 1.29,-0.08 1.67,-0.13 0.03,-0 0.06,-0.01 0.08,-0.01 0.06,-0.01 0.1,-0.02 0.16,-0.02l0 0.27 0.64 0 0 -0.27 0.62 0.07c0.11,0.01 0.2,0.02 0.31,0.03 0.04,0 0.11,0.02 0.16,0.02l0.98 0.05c0.25,0 0.62,0.02 0.86,0 0.05,-0 0.12,-0 0.17,-0 0.07,0 0.11,-0.01 0.17,-0.01 0.21,0 0.74,-0.03 0.97,-0.06 0.19,-0.02 0.43,-0.04 0.62,-0.07 0.19,-0.03 0.24,-0.01 0.24,-0.14 0,-0.07 -0.08,-0.08 -0.11,-0.09 -0.13,-0.03 -0.38,-0.08 -0.51,-0.1 -0.11,-0.02 -0.59,-0.1 -0.71,-0.1 -0.04,-0 -0.05,-0 -0.09,-0.01 -0.03,-0 -0.05,-0 -0.09,-0.01l-0.19 -0.02c-0.24,-0.03 -1.43,-0.07 -1.59,-0.05 -0.04,0.01 -0.09,0 -0.14,0 -0.06,0 -0.09,0.01 -0.13,0.01 -0.09,0 -0.18,0 -0.27,0.01l-0.52 0.04c-0.05,0.01 -0.08,0.01 -0.13,0.01 -0.04,0 -0.08,0.01 -0.13,0.02 -0.06,0 -0.48,0.06 -0.5,0.07l0 -0.22c-0.08,0 -0.06,0 -0.08,-0.02 -0.01,-0.01 -0.01,-0.02 -0.02,-0.03 -0.02,-0.02 -0.03,-0.03 -0.05,-0.05 -0.05,-0.04 -0.11,-0.06 -0.16,-0.06l-0.03 0c-0.12,0.01 -0.22,0.09 -0.24,0.16zm-18.17 0l-0.03 0 0 0.22c-0.03,-0 -0.63,-0.08 -0.77,-0.09 -0.11,-0.01 -0.31,-0.03 -0.4,-0.03l-0.27 -0.02c-0.05,-0 -0.1,0 -0.15,0 -0.4,-0.03 -0.64,-0.01 -1.01,-0.01l-0.3 0.01c-0.05,0 -0.05,0.01 -0.1,0.01l-0.67 0.05c-0.45,0.06 -0.69,0.08 -1.17,0.19 -0.18,0.04 -0.28,0.03 -0.28,0.15 0,0.1 0.14,0.1 0.23,0.11 0.28,0.04 0.66,0.08 0.94,0.1 0.06,0 0.1,0.01 0.16,0.01l0.16 0.01c0.22,0.02 0.45,0.02 0.67,0.02 0.06,0 0.06,0.01 0.16,0.01l1.22 -0.03c0.04,-0.01 0.12,-0.01 0.16,-0.01 0.03,-0 0.06,-0 0.08,-0 0.04,0 0.05,-0.01 0.08,-0.01 0.06,-0 0.1,-0.01 0.16,-0.01l0.48 -0.05c0.05,-0.01 0.1,-0.01 0.15,-0.02l0.47 -0.06 0 0.27 0.63 0 0 -0.27c0.08,0 0.7,0.09 0.92,0.1l0.32 0.02c0.21,0.02 0.44,0.03 0.66,0.03 0.06,-0 0.09,0.01 0.16,0.01l0.89 0c0.05,-0 0.12,0 0.17,0l0.82 -0.04c0.28,-0.02 0.83,-0.07 1.09,-0.12 0.09,-0.02 0.1,-0.11 0.06,-0.17 -0.04,-0.05 -0.49,-0.12 -0.58,-0.14 -0.11,-0.02 -0.23,-0.04 -0.35,-0.06 -0.21,-0.04 -0.43,-0.05 -0.64,-0.08 -0.32,-0.04 -1.46,-0.09 -1.7,-0.06 -0.04,0.01 -0.09,0 -0.14,0 -0.06,0 -0.09,0.01 -0.13,0.01 -0.05,0 -0.1,-0 -0.14,0 -0.13,0 -0.65,0.05 -0.79,0.06 -0.04,0 -0.08,0.01 -0.13,0.02l-0.5 0.07 0 -0.22 -0.07 0c-0.02,-0.07 -0.12,-0.15 -0.24,-0.16l-0.02 0c-0.05,0 -0.1,0.02 -0.16,0.05 -0.08,0.06 -0.07,0.1 -0.1,0.1zm3.69 1.38c0.15,0.29 0.26,0.65 0.26,0.99 0,0.31 -0.01,0.4 -0.09,0.69 -0.03,0.12 -0.09,0.25 -0.13,0.36 -0.02,0.04 -0.04,0.08 -0.05,0.12l0.26 0.03c0.11,0.02 0.1,0.03 0.17,-0.09 0.29,-0.53 0.41,-1.05 0.17,-1.65 -0.05,-0.12 -0.16,-0.32 -0.24,-0.43 -0.02,-0.03 -0.02,-0.02 -0.04,-0.06l-0.29 0.04zm10.57 1c0,0.29 0.02,0.47 0.12,0.74 0.03,0.09 0.07,0.16 0.11,0.24l0.13 0.22c0.02,-0.01 0.31,-0.05 0.35,-0.05 -0,-0.03 -0.03,-0.09 -0.05,-0.12 -0.02,-0.04 -0.04,-0.08 -0.05,-0.12 -0.03,-0.08 -0.07,-0.17 -0.09,-0.26 -0.1,-0.41 -0.12,-0.77 -0.01,-1.18 0.04,-0.16 0.07,-0.22 0.13,-0.36 0.02,-0.04 0.04,-0.08 0.05,-0.12l-0.19 -0.03c-0.11,-0.01 -0.09,-0.02 -0.15,0.05 -0.13,0.18 -0.24,0.37 -0.3,0.59 -0.03,0.11 -0.06,0.25 -0.06,0.39zm-4.94 6.19c0.12,0 0.2,-0.01 0.31,-0.05 0.07,-0.02 0.15,-0.07 0.21,-0.11l0.09 -0.07c0.05,-0.04 0.11,-0.13 0.14,-0.18 0.02,-0.03 0.04,-0.08 0.06,-0.11l0.02 -0.06c0,-0.01 0,-0.01 0.01,-0.02 0.02,-0.06 0.04,-0.17 0.04,-0.23 0,-0.02 0,-0.03 0,-0.05 0,-0.01 -0,-0.01 -0,-0.02 0,-0.01 0,-0.02 0,-0.03 -0,-0.04 -0.01,-0.1 -0.02,-0.14 -0.01,-0.04 -0.03,-0.11 -0.05,-0.14 -0.03,-0.08 -0.08,-0.15 -0.13,-0.21l-0.04 -0.04c-0.02,-0.03 -0.02,-0.02 -0.04,-0.04 -0.02,-0.02 -0.07,-0.06 -0.09,-0.07 -0.06,-0.04 -0.14,-0.08 -0.21,-0.11 -0.03,-0.01 -0.05,-0.02 -0.08,-0.02 -0.18,-0.05 -0.39,-0.02 -0.54,0.05 -0.08,0.04 -0.13,0.07 -0.2,0.12 -0.01,0 -0.01,0.01 -0.01,0.01 -0.01,0.01 -0.01,0.01 -0.02,0.01 -0.02,0.02 -0.03,0.02 -0.04,0.04l-0.08 0.1 -0.04 0.07c-0.03,0.05 -0.06,0.11 -0.07,0.17 -0,0.01 -0,0.01 -0.01,0.02 -0,0.01 -0.01,0.03 -0.01,0.04 -0.01,0.07 -0.02,0.12 -0.02,0.19l0.01 0.1c0.01,0.06 0.03,0.16 0.05,0.22 0.02,0.05 0.04,0.1 0.07,0.14 0.02,0.03 0.05,0.08 0.08,0.11 0.02,0.02 0.04,0.05 0.06,0.07 0.03,0.03 0.09,0.07 0.12,0.09 0.03,0.02 0.08,0.05 0.11,0.06 0.04,0.02 0.07,0.03 0.11,0.04 0.02,0 0.03,0.01 0.04,0.01 0.06,0.01 0.12,0.02 0.19,0.02zm0.01 -0.38c0.07,0 0.11,-0.01 0.18,-0.03 0.04,-0.01 0.09,-0.04 0.12,-0.06l0.05 -0.04c0.03,-0.02 0.06,-0.07 0.08,-0.1 0.01,-0.02 0.02,-0.04 0.03,-0.06l0.01 -0.03c0,-0 0,-0.01 0,-0.01 0.01,-0.03 0.02,-0.09 0.02,-0.13 0,-0.01 0,-0.02 0,-0.03 0,-0.01 -0,-0.01 -0,-0.01 -0,-0 0,-0.01 0,-0.02 -0,-0.02 -0.01,-0.05 -0.01,-0.08 -0.01,-0.02 -0.02,-0.06 -0.03,-0.08 -0.02,-0.04 -0.04,-0.08 -0.08,-0.12l-0.02 -0.02c-0.01,-0.02 -0.01,-0.01 -0.02,-0.02 -0.01,-0.01 -0.04,-0.03 -0.05,-0.04 -0.04,-0.03 -0.08,-0.05 -0.12,-0.06 -0.02,-0.01 -0.03,-0.01 -0.05,-0.01 -0.1,-0.03 -0.22,-0.01 -0.31,0.03 -0.05,0.02 -0.07,0.04 -0.11,0.07 -0,0 -0,0 -0.01,0.01 -0,0 -0,0 -0.01,0.01 -0.01,0.01 -0.01,0.01 -0.02,0.02l-0.05 0.06 -0.02 0.04c-0.02,0.03 -0.03,0.06 -0.04,0.09 -0,0 -0,0.01 -0,0.01 -0,0.01 -0,0.02 -0.01,0.02 -0.01,0.04 -0.01,0.07 -0.01,0.11l0 0.06c0,0.04 0.02,0.09 0.03,0.12 0.01,0.03 0.02,0.06 0.04,0.08 0.01,0.02 0.03,0.04 0.04,0.06 0.01,0.01 0.02,0.03 0.04,0.04 0.02,0.02 0.05,0.04 0.07,0.05 0.02,0.01 0.04,0.03 0.06,0.03 0.02,0.01 0.04,0.02 0.07,0.02 0.01,0 0.01,0 0.02,0.01 0.03,0.01 0.07,0.01 0.11,0.01z"/>
  <path class="fil3" d="M47.11 30.9c1.76,0 1.82,0.09 3.57,-0.48 0.14,-0.05 0.32,-0.1 0.46,-0.16 0.16,-0.06 0.31,-0.15 0.48,-0.23 1.04,-0.5 1.81,-1.26 2.52,-2.06 1.44,-1.61 1.98,-1.58 0.11,-1.56 -1.56,0.01 -2.51,-0.41 -4.62,0.75 -0.38,0.21 -0.48,0.27 -0.81,0.51 -0.52,0.37 -0.96,0.79 -1.32,1.32 -0.12,0.18 -0.13,0.19 -0.26,0.36l-0.14 0.21c-0.25,0.42 -0.43,0.76 -0.43,1.25 0.2,0.05 0.2,0.09 0.44,0.09z"/>
  <path class="fil3" d="M59.36 132.01c-0.4,-0.03 -0.31,-0.08 -0.63,-0.25 -1.2,-0.66 -2.58,-0.86 -3.95,-0.71 -0.91,0.1 -2.04,0.54 -2.84,0.95 -1.64,0.83 -1.42,0.78 -3.05,0.17 -0.28,-0.11 -0.82,-0.26 -0.99,-0.5 0.87,0 1.35,-0.08 2.06,-0.32l0.64 -0.24c0.69,-0.32 1.55,-0.74 1.98,-1.38 -0.56,-0.84 -2.87,-1.67 -4.14,-1.67 -0.93,0 -2.02,0.19 -2.81,0.45 -0.62,0.21 -1.83,0.77 -2.41,0.46l-1.53 -0.86c-0.27,-0.15 -0.19,0.09 -0.3,-0.31 1.24,0.1 0.71,0.06 2.04,-0.08 0.77,-0.08 1.41,-0.4 2.06,-0.76 0.18,-0.1 0.3,-0.14 0.45,-0.26 0.3,-0.22 0.21,-0.05 0.22,-0.49 -0.32,-0.09 -0.22,-0.11 -0.47,-0.33l-2.77 -1.47c-1.19,-0.25 -2.4,-0.3 -3.63,-0.05l-1.56 0.3c-0.32,0.05 -0.42,0.04 -0.67,-0.12l-1.06 -0.8c-0.27,-0.22 -0.21,-0.27 -0.61,-0.36l0 -0.27c0.78,0.07 0.21,0.18 2.12,0.18 0.58,0 1.89,-0.4 2.42,-0.67 0.16,-0.08 0.18,-0.12 0.31,-0.22 -0.22,-0.93 -2.37,-2.35 -3.35,-2.65 -1.37,-0.42 -2.53,-0.35 -3.97,-0.35 -1.25,0 -0.79,0.47 -1.74,-0.37 -0.26,-0.23 -0.4,-0.31 -0.66,-0.57 -0.23,-0.23 -0.47,-0.33 -0.51,-0.73 0.52,0.04 0.09,0.07 0.55,0.16 1.38,0.28 2.02,0.29 3.42,0.02 0.41,-0.08 0.5,-0.18 0.88,-0.27 -0.04,-0.51 -0.86,-1.47 -1.18,-1.81 -1.2,-1.26 -2.55,-1.61 -4.2,-1.97l-2.82 -0.27c-0.19,-0.28 -1.23,-1.46 -1.23,-1.67 0,-0.43 0.4,-0.02 1.15,0.17 1.1,0.28 1.68,0.25 2.73,0.19 0.6,-0.03 0.5,-0.02 0.88,-0.27 -0.44,-0.84 -0.85,-1.69 -1.52,-2.36 -1,-1 -2.44,-1.73 -3.88,-2.02 -1.6,-0.32 -2.04,-0.05 -2.66,-1.21 -0.22,-0.4 -0.64,-0.87 -0.75,-1.28 0.65,0.02 1.15,0.56 1.81,0.75l1.01 0.22c2.05,0.17 2.48,0.49 1.52,-1.52 -0.65,-1.36 -1.63,-2.3 -3,-3 -0.9,-0.46 -1.92,-0.76 -2.84,-1.12 -0.71,-0.28 -0.59,-0.33 -1.08,-1.48l-0.05 -0.12c-0.13,-0.28 -0.33,-0.61 -0.36,-0.96 0.24,0.07 0.65,0.51 0.96,0.72 0.45,0.31 1.11,0.64 1.66,0.81l1.49 0.28c0.39,0.05 0.38,0.01 0.65,-0.13 -0.02,-0.29 -0.11,-0.48 -0.18,-0.79l-0.12 -0.41c-0.01,-0.02 -0.02,-0.04 -0.02,-0.06 -0.01,-0.02 -0.01,-0.05 -0.02,-0.07 -0.3,-0.98 -0.7,-1.71 -1.33,-2.46l-0.3 -0.32c-0.69,-0.66 -1.5,-1.18 -2.35,-1.62l-1.62 -0.85c-0.26,-0.17 -0.22,-0.23 -0.31,-0.48l-0.41 -1.36c-0.1,-0.3 -0.15,-0.56 -0.22,-0.84 0.32,0.09 0.29,0.15 0.48,0.4 0.5,0.68 1.33,1.18 2.09,1.53 0.33,0.15 1.93,0.84 1.93,0.27 0,-1.01 -0.26,-2.09 -0.58,-2.94 -0.37,-0.97 -1.19,-1.92 -1.91,-2.59 -0.51,-0.48 -1.18,-0.84 -1.76,-1.24 -0.36,-0.24 -0.56,-0.43 -0.95,-0.63 0,-0.63 -0.47,-2.05 -0.26,-2.47 0.66,0.49 0.99,1.76 3.48,2.69 0.28,0.11 0.06,0.13 0.4,0.13 0.44,0 0.26,-0.76 0.26,-1.06 0,-0.83 -0.06,-1.56 -0.32,-2.33l-0.23 -0.65c-0.47,-0.97 -1.67,-2.24 -1.8,-2.35l-1.53 -1.38c-0.51,-0.4 -0.37,-0.55 -0.36,-1.4 0,-0.95 -0.21,-1.37 0.09,-1.59 0.05,0.65 0.61,1.21 0.98,1.66 0.4,0.5 0.89,0.94 1.46,1.27 0.37,0.22 0.77,0.55 1.26,0.59 0,-0.7 0.18,-0.82 0.18,-1.41l0 -1.85c0,-0.29 -0.06,-0.07 -0.14,-0.39 -0.06,-0.23 -0.03,-0.21 -0.11,-0.42 -0.4,-1.09 -1.04,-2.01 -1.78,-2.89 -0.01,-0.01 -0.03,-0.03 -0.04,-0.05l-0.33 -0.38c-0.11,-0.12 -0.15,-0.16 -0.25,-0.28l-0.12 -0.14c-0.07,-0.09 -0.06,-0.07 -0.12,-0.14 -0.72,-0.8 -0.39,-0.83 -0.29,-1.76 0.05,-0.47 -0.07,-0.87 0.1,-1.22 0.24,0.1 0.08,0 0.2,0.24l0.4 0.92c0.44,0.86 1.74,2.38 2.66,2.63 0.27,-0.52 0.36,-0.97 0.5,-1.53 0.52,-2.13 -0.42,-4.33 -1.65,-6.05 -0.98,-1.38 -0.85,-1.1 -0.5,-2.44 0.11,-0.4 0.1,-0.95 0.41,-1.17 0.18,0.38 0.22,0.88 0.39,1.29 0.17,0.39 0.34,0.84 0.6,1.16l0.73 0.95c0.28,0.31 0.56,0.71 1.02,0.75 0.39,-0.74 0.97,-2.15 0.97,-2.91 0,-1.78 -0.14,-2.5 -0.86,-4.08l-0.82 -1.65c-0.26,-0.43 -0.17,-0.41 0.02,-0.85 0.23,-0.51 0.4,-1.43 0.77,-1.7 0.11,0.22 0.21,1.2 0.48,1.9 0.11,0.3 0.11,0.35 0.26,0.63 0.36,0.67 0.75,1.46 1.38,1.88l0.57 -0.84c0.34,-0.63 0.6,-1.16 0.8,-1.84l0.07 -0.19c0.24,-0.86 0.17,-2.1 -0.06,-2.92 -0.13,-0.46 -0.19,-1 -0.39,-1.46 -0.14,-0.33 -0.2,-0.57 -0.31,-0.93l-0.25 -0.64c-0.05,-0.16 -0.06,-0.04 -0.04,-0.23 0.02,-0.23 0.85,-1.65 1.05,-2.02 0.15,-0.28 -0.07,-0.2 0.32,-0.3 -0.34,1.45 0.21,2.86 0.83,4.1 0.15,0.3 0.34,0.59 0.58,0.75 0.62,-0.42 1.09,-1.25 1.45,-1.9 0.69,-1.25 0.86,-3.04 0.57,-4.44 -0.04,-0.21 -0.06,-0.52 -0.13,-0.76 -0.16,-0.61 -0.31,-1.16 -0.31,-1.81 0,-0.22 0.25,-0.47 0.39,-0.67 1.45,-2.07 0.93,-0.76 0.93,0.23 0,0.54 0.11,0.8 0.17,1.33l0.17 0.63c0.03,0.1 0.03,0.1 0.06,0.2 0.13,0.37 0.39,0.73 0.48,1.11l0.44 0c0.12,-0.33 -0.05,-0.01 0.19,-0.25 0.57,-0.58 1.04,-1.09 1.47,-1.79 0.14,-0.23 0.18,-0.31 0.3,-0.58l0.21 -0.49c0.02,-0.04 0.07,-0.16 0.07,-0.19 0.34,-1.09 0.31,-2.15 0.31,-3.3 0,-0.66 -0.18,-1.01 -0.18,-1.68 0,-0.44 0.9,-1.29 1.26,-1.65 0.09,-0.09 0.18,-0.2 0.27,-0.27 0.63,-0.55 -0.11,0.27 -0.11,2.46 0,0.68 0.18,1.32 0.37,1.92 0.26,0.82 0.46,0.4 1.02,-0.01 0.65,-0.48 1.25,-1.06 1.7,-1.74 0.17,-0.27 0.25,-0.41 0.4,-0.74 0.15,-0.33 0.21,-0.45 0.34,-0.8 0.14,-0.38 0.12,-0.58 0.21,-0.93l0.28 -2.02c0.04,-0.75 -0.21,-1.37 0.44,-1.85 0.22,-0.16 0.4,-0.33 0.63,-0.51 0.39,-0.32 1.18,-1.14 0.68,0.15 -0.28,0.72 -0.43,1.74 -0.43,2.57l0.26 1.5c0.35,-0.01 0.45,-0.09 0.73,-0.24 1.21,-0.69 2.23,-1.57 2.92,-2.81 0.79,-1.45 0.95,-3.62 1.16,-4.31 0.13,-0.41 0.08,-0.32 0.7,-0.71 0.6,-0.38 1.07,-0.69 1.7,-1.04l2.6 -1.45c0.31,-0.17 0.61,-0.37 0.96,-0.45l0 -0.18c-0.81,0.02 -4.85,2.22 -5.68,2.7l-2.26 1.35c-1.27,0.79 -3.74,2.4 -4.64,3.2 -0.18,0.16 -0.28,0.21 -0.46,0.33 -0.69,0.49 -1.42,1.23 -2.13,1.75l-3.18 2.9c-0.29,0.29 -0.45,0.47 -0.72,0.77l-3.64 4.03c-0.69,0.74 -1.73,2.16 -2.32,3.06 -0.13,0.2 -0.21,0.25 -0.35,0.44l-1.23 1.85c-0.12,0.18 -0.14,0.27 -0.25,0.46l-4.76 8.99 -1.69 4.48c-0.06,0.18 -0.12,0.44 -0.17,0.62 -0.13,0.39 -0.25,0.72 -0.36,1.14 -0.27,1.03 -0.83,2.61 -0.95,3.63l-0.78 3.8c-0.04,0.26 0,0.49 -0.05,0.75 -0.06,0.31 -0.13,0.18 -0.15,0.64 -0.03,0.58 -0.09,0.86 -0.16,1.34l-0.28 2.8c0,0.47 0.07,1.03 -0.04,1.47 -0.01,0.02 -0.02,0.04 -0.02,0.06l-0.05 0.17c-0.02,0.36 0.01,-0.02 0.04,0.2 0.08,0.54 -0.04,-0.17 -0.11,0.56 -0.04,0.44 -0.07,3.02 0.02,3.43 0,0.02 0.01,0.05 0.02,0.07l0.1 0.25c0.18,0.64 -0.01,1.58 0.04,2.25l0.6 4.69c0.04,0.34 -0.02,0.4 0.08,0.72 0.17,0.57 0.21,1.34 0.34,1.95 0.06,0.28 0.12,0.37 0.18,0.62l0.88 3.79c0.05,0.2 0.09,0.3 0.16,0.55 0.05,0.17 0.02,0.06 0.08,0.27 0.02,0.08 0.06,0.24 0.1,0.34l0.37 1.13c0.62,2.12 1.49,4.11 2.33,6.13l1.71 3.58c0.12,0.26 0.16,0.27 0.3,0.5 0.1,0.17 0.19,0.36 0.28,0.51 0.71,1.3 1.47,2.63 2.31,3.86l1.23 1.77c0.82,1.24 1.88,2.39 2.74,3.61 0.01,0.01 0.03,0.04 0.04,0.05l5.47 5.72c0.18,0.15 0.25,0.23 0.41,0.39 0.87,0.88 1.88,1.67 2.82,2.47 0.16,0.13 0.29,0.2 0.47,0.33l1.76 1.32c1.34,1 2.7,1.87 4.12,2.75l1.43 0.86c0.21,0.11 0.26,0.13 0.46,0.25l4.61 2.35c0.19,0.09 0.39,0.18 0.55,0.24 0.12,0.05 0.17,0.06 0.25,0.1 2.07,0.89 3.8,1.64 6.13,0.6 0.85,-0.38 1.61,-0.96 2.26,-1.62 0.21,-0.22 0.23,-0.17 0.24,-0.56z"/>
  <path class="fil3" d="M19.96 78.23c0.95,-0.22 3.39,-1.88 3.61,-2.73l0.27 0c0,0.78 -0.18,1.19 -0.18,2.03 -0.27,0.14 -0.4,0.22 -0.64,0.42 -0.26,0.21 -0.39,0.24 -0.62,0.44 -0.66,0.58 -1.33,1.25 -1.79,2 -0.11,0.18 -0.09,0.18 -0.17,0.36 -0.53,1.07 -0.57,1.46 -0.57,2.69 0,0.34 0.02,0.24 0.08,0.45l0.37 1.4c0.45,-0.01 0.8,-0.28 1.12,-0.56l2.09 -2.32c0.13,-0.22 0.18,-0.4 0.4,-0.48l0 2.29c-0.21,0.14 -0.37,0.22 -0.55,0.42l-0.9 1.04c-0.67,0.86 -0.67,0.82 -1.15,1.84 -0.42,0.89 -0.47,1.97 -0.27,2.92l0.18 0.79c0.32,0.85 0.35,1.6 1.13,0.85l0.79 -0.8c0.6,-0.74 1.24,-1.56 1.48,-2.58l0.26 0c0,0.67 0.12,0.95 0.2,1.57 0.11,0.94 -0.72,1.48 -1.16,2.22 -0.41,0.68 -0.75,1.44 -0.97,2.2 -0.37,1.23 -0.07,2.81 0.64,3.87 0.15,0.23 0.27,0.34 0.34,0.63 0.58,-0.05 0.97,-0.74 1.27,-1.2 0.13,-0.19 0.25,-0.33 0.36,-0.52l0.57 -1.11c0.2,-0.42 0.24,-0.83 0.36,-1.32l0.18 0c0,1.21 0.92,1.59 0.23,2.69l-0.63 1.14c-0.67,1.26 -1.09,2.86 -0.62,4.23 0.31,0.89 0.41,0.98 0.9,1.75 0.2,0.31 0.3,0.28 0.38,0.59l0.44 0c0.12,-0.44 0.56,-0.91 0.78,-1.34 0.44,-0.87 0.81,-1.82 0.9,-2.81l0.26 0c0.01,0.4 0.12,0.49 0.25,0.81 0.69,1.6 0.37,0.74 -0.44,3.15 -0.36,1.08 -0.42,2.56 -0.02,3.66 0.23,0.65 0.52,1.1 0.97,1.59 0.01,0.01 0.03,0.03 0.04,0.05 0.01,0.01 0.03,0.03 0.04,0.04 0.27,0.29 0.51,0.66 0.92,0.76 0.91,-1.37 1.23,-2.95 1.23,-4.67l0.18 0c0.05,0.65 0.97,1.34 0.97,1.94 0,0.49 -1.01,3.3 -0.46,4.95l0.65 1.38c0.31,0.48 1.33,1.69 1.92,1.69 0.35,0 0.39,-0.51 0.49,-0.83 0.39,-1.2 0.39,-2.27 0.39,-3.58 0.43,0.12 0.6,0.51 0.84,0.83 0.13,0.17 0.18,0.21 0.28,0.34 0.25,0.33 0.17,1 0.07,1.43 -0.08,0.34 -0.14,0.09 -0.14,0.48l0 1.67c0,0.38 0.22,1.3 0.36,1.58 0.21,0.43 0.43,0.92 0.76,1.27l0.48 0.49c0.36,0.33 0.84,0.73 1.28,0.93 0.02,0.01 0.04,0.02 0.06,0.03 0.39,0.17 0.54,0.23 0.7,-0.29l0.23 -2.15c0,-0.83 -0.34,-1.51 -0.35,-2.2 0.33,0.09 0.6,0.57 0.93,0.83 1.19,0.92 0.45,1.3 0.69,2.92 0.04,0.29 0.02,0.54 0.06,0.82 0.21,1.54 1.36,3 2.69,3.74 0.32,0.18 0.93,0.49 1.35,0.5 0.22,-0.93 0.14,-2.54 -0.11,-3.42l-0.32 -1c-0.09,-0.24 -0.06,0.12 -0.1,-0.34 0.38,0.03 0.31,0.09 0.55,0.33 0.52,0.51 1.29,0.59 1.3,1.52 0.01,1.1 0.28,2.06 0.66,3.04 0.19,0.48 0.41,0.79 0.67,1.18 0.31,0.46 0.52,0.58 0.93,0.92 0.36,0.3 0.74,0.44 1.21,0.64l0.76 0.22c0.36,0.12 0.36,0.16 0.7,0.09 0,-0.42 0.02,-0.91 0,-1.32l-0.6 -2.22c-0.15,-0.39 -0.36,-0.58 -0.37,-1.04 0.38,0.1 0.89,0.49 1.25,0.68 0.57,0.31 0.48,0.23 0.66,0.92 0.08,0.28 0.03,0.02 0.1,0.34 0.22,1.08 0.74,2.52 1.5,3.35 0.51,0.56 1.36,1.18 2.1,1.42 0.24,0.08 0.45,0.11 0.7,0.18 0.23,0.07 1.35,0.39 1.4,-0.11 0.03,-0.3 -0.39,-1.58 -0.53,-1.91 -0.85,-2.08 -1.69,-3.19 -4.39,-4.16 -0.83,-0.3 -2.56,-1.12 -3.33,-1.61 -0.26,-0.17 -0.12,-0.08 -0.42,-0.2 -0.62,-0.26 -1.22,-0.66 -1.81,-1.01 -0.17,-0.1 -0.29,-0.15 -0.46,-0.25l-7.24 -5.28c-0.57,-0.44 -1.03,-0.96 -1.54,-1.45l-1.95 -1.93c-0.14,-0.14 -0.22,-0.21 -0.35,-0.35l-2.28 -2.57c-0.7,-1.06 -1.59,-2.1 -2.32,-3.15 -0.76,-1.1 -1.5,-2.24 -2.14,-3.41 -0.93,-1.71 -2.07,-3.77 -2.78,-5.59l-0.77 -1.96c-0.06,-0.15 -0.12,-0.38 -0.17,-0.53l-0.19 -0.51c-0.26,-0.68 -0.5,-1.44 -0.68,-2.14 -0.1,-0.37 -0.18,-0.64 -0.29,-1.03 -0.07,-0.24 -0.08,-0.24 -0.16,-0.55l-0.39 -1.72c-0.06,-0.27 -0.08,-0.27 -0.14,-0.57 -0.05,-0.29 -0.06,-0.29 -0.14,-0.57 -0.12,-0.4 -0.11,-0.77 -0.2,-1.12 -0.09,-0.33 -0.08,-0.18 -0.1,-0.61 -0.02,-0.47 -0.01,-0.26 -0.11,-0.59 -0.18,-0.61 -0.33,-2.88 -0.46,-3.69 -0.11,-0.7 -0.15,-4.28 -0.14,-5.24 0.01,-0.5 0.09,-0.61 0.1,-1.14 0,-0.38 -0.01,-0.77 -0.01,-1.15l0.68 -5.41c0.16,-0.66 0.24,-1.32 0.42,-1.96 0.1,-0.35 0.11,-0.61 0.2,-0.94l0.26 -0.98c0.05,-0.21 0.03,-0.23 0.09,-0.44 0.05,-0.17 0.1,-0.23 0.16,-0.46l0.34 -1.16c0.04,-0.11 0.04,-0.15 0.08,-0.27 0.05,-0.18 0.08,-0.25 0.15,-0.47l0.61 -1.77c0.03,-0.1 0.02,-0.1 0.06,-0.2 0.05,-0.15 0.05,-0.11 0.1,-0.25 0.07,-0.17 0.1,-0.27 0.17,-0.45 0.06,-0.14 0.09,-0.21 0.16,-0.37l0.53 -1.32c0.91,-2.01 2.05,-4.5 3.28,-6.33 0.17,-0.25 0.29,-0.43 0.44,-0.71 0.42,-0.77 1.02,-1.46 1.49,-2.21 0.6,-0.96 1.33,-1.84 2.04,-2.72 0.17,-0.21 0.34,-0.42 0.52,-0.62 0.22,-0.25 0.34,-0.43 0.57,-0.66l1.17 -1.29c0.53,-0.69 1.69,-1.8 2.35,-2.41l0.62 -0.52c0.28,-0.24 0.39,-0.31 0.66,-0.58 0.81,-0.83 2.02,-1.74 2.98,-2.4 0.17,-0.12 0.18,-0.16 0.33,-0.29 0.23,-0.2 0.47,-0.31 0.73,-0.5 1.42,-1.03 2.92,-1.89 4.41,-2.82 1.27,-0.79 3.91,-1.84 4.54,-2.25l0.1 -0.07c0.15,-0.14 0.07,0.02 0.16,-0.2 -0.87,0.07 -1.77,0.56 -2.56,0.88 -0.24,0.1 -0.06,0.02 -0.24,0.11l-2.7 1.18c-0.29,0.04 -0.41,-0.09 -0.63,-0.18l-1.6 -0.61c-0.87,-0.26 -1.78,-0.24 -2.67,-0.24 -0.56,0 -1.59,0.51 -2,0.82 -0.47,0.34 -1.27,0.88 -1.43,1.48 0.3,0.41 1.57,0.78 2,0.91 0.8,0.23 1.64,0.24 2.67,0.24 -0.11,0.41 -0.8,0.61 -1.17,0.85l-0.65 0.41c-0.28,0.09 -0.84,-0.17 -1.12,-0.26 -1.51,-0.43 -3.24,-0.53 -4.68,0.18 -0.07,0.03 -0.26,0.12 -0.29,0.15 -0.57,0.32 -1.98,1.6 -2.04,2.28 0.44,0.29 1.09,0.38 1.6,0.52 0.89,0.24 2.16,0.24 3.16,0.01 -0.08,0.32 -0.15,0.29 -0.4,0.48 -0.18,0.14 -0.33,0.25 -0.49,0.39 -0.42,0.34 -0.56,0.61 -1.14,0.56 -1.14,-0.1 -2.25,-0.2 -3.37,-0.05 -1.11,0.15 -1.85,0.6 -2.54,1.16 -0.44,0.35 -1.38,1.54 -1.4,2.31 1.58,0.37 1.4,0.26 3.09,0.26 0.84,0 1.16,-0.3 1.76,-0.35 -0.23,0.44 -0.55,0.68 -0.9,1.04 -0.55,0.55 -0.36,0.65 -1.39,0.64 -1.15,-0.01 -2.02,0.05 -3.06,0.38 -0.22,0.07 0.02,-0.01 -0.2,0.07l-0.19 0.07c-1.28,0.46 -2.15,1.48 -2.69,2.68 -0.5,1.12 -0.49,1.37 1.82,1.11 0.68,-0.08 1.21,-0.13 1.89,-0.4 0.25,-0.1 0.18,-0.09 0.37,-0.18 0.5,-0.23 0.28,0.17 0.11,0.38 -1.61,2 -0.23,1.05 -2.6,1.55l-0.94 0.21c-0.86,0.27 -1.6,0.58 -2.32,1.11 -0.79,0.59 -1.27,1.57 -1.54,2.51 -0.18,0.6 -0.17,-0.09 -0.17,1.16 3.48,0 5.15,-2.18 4.29,-0.56 -0.17,0.32 -0.28,0.47 -0.44,0.79 -0.19,0.37 -0.3,0.43 -0.69,0.54l-0.76 0.21c-0.02,0.01 -0.04,0.02 -0.06,0.02l-0.13 0.04c-1.09,0.33 -2.52,0.93 -3.26,1.85 -0.86,1.07 -1.31,2.29 -1.31,3.72 0.6,0.14 1.83,-0.28 2.39,-0.52 0.58,-0.24 1.62,-1.06 2.1,-1.07 -0.07,0.31 -0.57,1.72 -0.76,1.88 -0.22,0.18 -0.32,0.14 -0.62,0.26l-1.22 0.54c-0.22,0.12 -0.36,0.21 -0.55,0.33 -1.01,0.6 -1.96,1.51 -2.38,2.65 -0.35,0.94 -0.37,1.75 -0.37,2.8 0.5,0.12 0.66,-0.04 1.23,-0.27 0.89,-0.36 1.97,-0.87 2.63,-1.6 0.26,-0.29 0.12,-0.33 0.46,-0.42 0,0.41 -0.17,0.9 -0.27,1.23 -0.33,1.1 0.11,0.73 -1.43,1.57 -0.21,0.12 -0.25,0.12 -0.44,0.26 -0.44,0.34 -0.89,0.62 -1.28,1.01 -0.52,0.53 -0.86,1.13 -1.21,1.79 -0.42,0.79 -0.44,2.66 -0.05,3.48z"/>
  <path class="fil4" d="M51.16 23.14c0.22,0 0.02,-0.14 0,-0.05 0,0 -0.25,0.05 0,0.05z"/>
  <polygon class="fil3" points="59.52,131.25 69.69,132.64 69.57,133.53 59.4,132.13 "/>
  <path class="fil3" d="M108.38 30.9c-1.76,0 -1.82,0.09 -3.57,-0.48 -0.14,-0.05 -0.32,-0.1 -0.46,-0.16 -0.16,-0.06 -0.31,-0.15 -0.48,-0.23 -1.04,-0.5 -1.81,-1.26 -2.52,-2.06 -1.44,-1.61 -1.98,-1.58 -0.11,-1.56 1.56,0.01 2.51,-0.41 4.62,0.75 0.38,0.21 0.48,0.27 0.81,0.51 0.52,0.37 0.96,0.79 1.32,1.32 0.12,0.18 0.13,0.19 0.26,0.36l0.14 0.21c0.25,0.42 0.43,0.76 0.43,1.25 -0.2,0.05 -0.2,0.09 -0.44,0.09z"/>
  <path class="fil3" d="M96.13 132.01c0.4,-0.03 0.31,-0.08 0.63,-0.25 1.2,-0.66 2.58,-0.86 3.95,-0.71 0.91,0.1 2.04,0.54 2.84,0.95 1.64,0.83 1.42,0.78 3.05,0.17 0.28,-0.11 0.82,-0.26 0.99,-0.5 -0.87,0 -1.35,-0.08 -2.06,-0.32l-0.64 -0.24c-0.69,-0.32 -1.55,-0.74 -1.98,-1.38 0.56,-0.84 2.87,-1.67 4.14,-1.67 0.93,0 2.02,0.19 2.81,0.45 0.62,0.21 1.83,0.77 2.41,0.46l1.53 -0.86c0.27,-0.15 0.19,0.09 0.3,-0.31 -1.24,0.1 -0.71,0.06 -2.04,-0.08 -0.77,-0.08 -1.41,-0.4 -2.06,-0.76 -0.18,-0.1 -0.3,-0.14 -0.45,-0.26 -0.3,-0.22 -0.21,-0.05 -0.22,-0.49 0.32,-0.09 0.22,-0.11 0.47,-0.33l2.77 -1.47c1.19,-0.25 2.4,-0.3 3.63,-0.05l1.56 0.3c0.32,0.05 0.42,0.04 0.67,-0.12l1.06 -0.8c0.27,-0.22 0.21,-0.27 0.61,-0.36l0 -0.27c-0.78,0.07 -0.21,0.18 -2.12,0.18 -0.58,0 -1.89,-0.4 -2.42,-0.67 -0.16,-0.08 -0.17,-0.12 -0.31,-0.22 0.22,-0.93 2.37,-2.35 3.35,-2.65 1.37,-0.42 2.53,-0.35 3.97,-0.35 1.25,0 0.79,0.47 1.74,-0.37 0.26,-0.23 0.4,-0.31 0.66,-0.57 0.23,-0.23 0.47,-0.33 0.51,-0.73 -0.52,0.04 -0.09,0.07 -0.55,0.16 -1.38,0.28 -2.02,0.29 -3.42,0.02 -0.41,-0.08 -0.5,-0.18 -0.88,-0.27 0.04,-0.51 0.86,-1.47 1.18,-1.81 1.2,-1.26 2.55,-1.61 4.2,-1.97l2.82 -0.27c0.19,-0.28 1.23,-1.46 1.23,-1.67 0,-0.43 -0.4,-0.02 -1.15,0.17 -1.1,0.28 -1.68,0.25 -2.73,0.19 -0.6,-0.03 -0.5,-0.02 -0.88,-0.27 0.44,-0.84 0.85,-1.69 1.52,-2.36 1,-1 2.44,-1.73 3.88,-2.02 1.6,-0.32 2.04,-0.05 2.66,-1.21 0.22,-0.4 0.64,-0.87 0.75,-1.28 -0.65,0.02 -1.15,0.56 -1.81,0.75l-1.01 0.22c-2.05,0.17 -2.48,0.49 -1.52,-1.52 0.65,-1.36 1.63,-2.3 3,-3 0.9,-0.46 1.92,-0.76 2.84,-1.12 0.71,-0.28 0.59,-0.33 1.08,-1.48l0.05 -0.12c0.13,-0.28 0.33,-0.61 0.36,-0.96 -0.24,0.07 -0.65,0.51 -0.95,0.72 -0.45,0.31 -1.11,0.64 -1.66,0.81l-1.49 0.28c-0.39,0.05 -0.38,0.01 -0.65,-0.13 0.02,-0.29 0.11,-0.48 0.18,-0.79l0.12 -0.41c0.01,-0.02 0.02,-0.04 0.02,-0.06 0.01,-0.02 0.01,-0.05 0.02,-0.07 0.3,-0.98 0.7,-1.71 1.33,-2.46l0.3 -0.32c0.69,-0.66 1.5,-1.18 2.35,-1.62l1.62 -0.85c0.26,-0.17 0.22,-0.23 0.31,-0.48l0.41 -1.36c0.1,-0.3 0.15,-0.56 0.22,-0.84 -0.32,0.09 -0.29,0.15 -0.48,0.4 -0.5,0.68 -1.33,1.18 -2.09,1.53 -0.33,0.15 -1.93,0.84 -1.93,0.27 0,-1.01 0.26,-2.09 0.58,-2.94 0.37,-0.97 1.19,-1.92 1.91,-2.59 0.51,-0.48 1.18,-0.84 1.76,-1.24 0.36,-0.24 0.56,-0.43 0.95,-0.63 0,-0.63 0.47,-2.05 0.26,-2.47 -0.66,0.49 -0.99,1.76 -3.48,2.69 -0.29,0.11 -0.06,0.13 -0.4,0.13 -0.44,0 -0.26,-0.76 -0.26,-1.06 0,-0.83 0.06,-1.56 0.32,-2.33l0.23 -0.65c0.47,-0.97 1.67,-2.24 1.8,-2.35l1.53 -1.38c0.51,-0.4 0.36,-0.55 0.36,-1.4 -0,-0.95 0.21,-1.37 -0.09,-1.59 -0.05,0.65 -0.61,1.21 -0.98,1.66 -0.4,0.5 -0.89,0.94 -1.46,1.27 -0.37,0.22 -0.77,0.55 -1.26,0.59 0,-0.7 -0.18,-0.82 -0.18,-1.41l0 -1.85c0,-0.29 0.06,-0.07 0.14,-0.39 0.06,-0.23 0.03,-0.21 0.11,-0.42 0.4,-1.09 1.04,-2.01 1.78,-2.89 0.01,-0.01 0.03,-0.03 0.04,-0.05l0.33 -0.38c0.11,-0.12 0.15,-0.16 0.25,-0.28l0.12 -0.14c0.07,-0.09 0.06,-0.07 0.12,-0.14 0.72,-0.8 0.39,-0.83 0.29,-1.76 -0.05,-0.47 0.07,-0.87 -0.1,-1.22 -0.24,0.1 -0.08,0 -0.2,0.24l-0.4 0.92c-0.44,0.86 -1.74,2.38 -2.66,2.63 -0.27,-0.52 -0.36,-0.97 -0.5,-1.53 -0.52,-2.13 0.42,-4.33 1.65,-6.05 0.98,-1.38 0.85,-1.1 0.5,-2.44 -0.11,-0.4 -0.1,-0.95 -0.41,-1.17 -0.18,0.38 -0.22,0.88 -0.39,1.29 -0.17,0.39 -0.34,0.84 -0.6,1.16l-0.73 0.95c-0.28,0.31 -0.56,0.71 -1.02,0.75 -0.39,-0.74 -0.97,-2.15 -0.97,-2.91 0,-1.78 0.14,-2.5 0.86,-4.08l0.82 -1.65c0.26,-0.43 0.17,-0.41 -0.02,-0.85 -0.23,-0.51 -0.4,-1.43 -0.77,-1.7 -0.11,0.22 -0.21,1.2 -0.48,1.9 -0.11,0.3 -0.11,0.35 -0.26,0.63 -0.36,0.67 -0.75,1.46 -1.38,1.88l-0.57 -0.84c-0.34,-0.63 -0.6,-1.16 -0.8,-1.84l-0.07 -0.19c-0.24,-0.86 -0.17,-2.1 0.06,-2.92 0.13,-0.46 0.19,-1 0.39,-1.46 0.14,-0.33 0.2,-0.57 0.3,-0.93l0.25 -0.64c0.05,-0.16 0.06,-0.04 0.04,-0.23 -0.02,-0.23 -0.85,-1.65 -1.05,-2.02 -0.15,-0.28 0.07,-0.2 -0.32,-0.3 0.34,1.45 -0.21,2.86 -0.84,4.1 -0.15,0.3 -0.34,0.59 -0.58,0.75 -0.62,-0.42 -1.09,-1.25 -1.45,-1.9 -0.69,-1.25 -0.86,-3.04 -0.57,-4.44 0.04,-0.21 0.06,-0.52 0.12,-0.76 0.16,-0.61 0.31,-1.16 0.31,-1.81 0,-0.22 -0.25,-0.47 -0.39,-0.67 -1.45,-2.07 -0.93,-0.76 -0.93,0.23 0,0.54 -0.11,0.8 -0.17,1.33l-0.17 0.63c-0.03,0.1 -0.03,0.1 -0.06,0.2 -0.13,0.37 -0.39,0.73 -0.48,1.11l-0.44 0c-0.12,-0.33 0.05,-0.01 -0.19,-0.25 -0.57,-0.58 -1.04,-1.09 -1.47,-1.79 -0.14,-0.23 -0.18,-0.31 -0.3,-0.58l-0.21 -0.49c-0.02,-0.04 -0.07,-0.16 -0.07,-0.19 -0.34,-1.09 -0.31,-2.15 -0.31,-3.3 0,-0.66 0.18,-1.01 0.18,-1.68 0,-0.44 -0.9,-1.29 -1.26,-1.65 -0.09,-0.09 -0.18,-0.2 -0.27,-0.27 -0.63,-0.55 0.11,0.27 0.11,2.46 0,0.68 -0.18,1.32 -0.37,1.92 -0.26,0.82 -0.46,0.4 -1.02,-0.01 -0.65,-0.48 -1.25,-1.06 -1.7,-1.74 -0.17,-0.27 -0.25,-0.41 -0.4,-0.74 -0.15,-0.33 -0.21,-0.45 -0.34,-0.8 -0.14,-0.38 -0.12,-0.58 -0.21,-0.93l-0.28 -2.02c-0.04,-0.75 0.21,-1.37 -0.44,-1.85 -0.22,-0.16 -0.4,-0.33 -0.63,-0.51 -0.39,-0.32 -1.18,-1.14 -0.68,0.15 0.28,0.72 0.43,1.74 0.43,2.57l-0.26 1.5c-0.35,-0.01 -0.45,-0.09 -0.73,-0.24 -1.21,-0.69 -2.23,-1.57 -2.92,-2.81 -0.79,-1.45 -0.95,-3.62 -1.16,-4.31 -0.13,-0.41 -0.08,-0.32 -0.7,-0.71 -0.6,-0.38 -1.07,-0.69 -1.7,-1.04l-2.6 -1.45c-0.3,-0.17 -0.61,-0.37 -0.96,-0.45l0 -0.18c0.81,0.02 4.85,2.22 5.68,2.7l2.26 1.35c1.27,0.79 3.74,2.4 4.65,3.2 0.18,0.16 0.28,0.21 0.46,0.33 0.69,0.49 1.42,1.23 2.13,1.75l3.18 2.9c0.29,0.29 0.45,0.47 0.72,0.77l3.64 4.03c0.69,0.74 1.73,2.16 2.32,3.06 0.13,0.2 0.21,0.25 0.35,0.44l1.23 1.85c0.12,0.18 0.14,0.27 0.25,0.46l4.76 8.99 1.69 4.48c0.06,0.18 0.12,0.44 0.17,0.62 0.13,0.39 0.25,0.72 0.36,1.14 0.27,1.03 0.83,2.61 0.95,3.63l0.78 3.8c0.04,0.26 -0,0.49 0.05,0.75 0.06,0.31 0.13,0.18 0.15,0.64 0.03,0.58 0.09,0.86 0.16,1.34l0.28 2.8c-0,0.47 -0.07,1.03 0.04,1.47 0.01,0.02 0.02,0.04 0.02,0.06l0.05 0.17c0.02,0.36 -0.01,-0.02 -0.04,0.2 -0.08,0.54 0.04,-0.17 0.11,0.56 0.04,0.44 0.07,3.02 -0.02,3.43 -0,0.02 -0.01,0.05 -0.02,0.07l-0.1 0.25c-0.18,0.64 0.01,1.58 -0.04,2.25l-0.6 4.69c-0.04,0.34 0.02,0.4 -0.08,0.72 -0.17,0.57 -0.21,1.34 -0.34,1.95 -0.06,0.28 -0.12,0.37 -0.18,0.62l-0.88 3.79c-0.05,0.2 -0.09,0.3 -0.16,0.55 -0.05,0.17 -0.02,0.06 -0.08,0.27 -0.02,0.08 -0.06,0.24 -0.1,0.34l-0.37 1.13c-0.62,2.12 -1.49,4.11 -2.33,6.13l-1.71 3.58c-0.12,0.26 -0.16,0.27 -0.3,0.5 -0.1,0.17 -0.19,0.36 -0.28,0.51 -0.71,1.3 -1.47,2.63 -2.31,3.86l-1.23 1.77c-0.82,1.24 -1.88,2.39 -2.74,3.61 -0.01,0.01 -0.03,0.04 -0.04,0.05l-5.47 5.72c-0.18,0.15 -0.25,0.23 -0.41,0.39 -0.87,0.88 -1.88,1.67 -2.82,2.47 -0.16,0.13 -0.29,0.2 -0.47,0.33l-1.76 1.32c-1.34,1 -2.7,1.87 -4.12,2.75l-1.43 0.86c-0.21,0.11 -0.26,0.13 -0.46,0.25l-4.61 2.35c-0.19,0.09 -0.39,0.18 -0.55,0.24 -0.12,0.05 -0.17,0.06 -0.25,0.1 -2.07,0.89 -3.8,1.64 -6.13,0.6 -0.85,-0.38 -1.61,-0.96 -2.26,-1.62 -0.21,-0.22 -0.23,-0.17 -0.24,-0.56z"/>
  <path class="fil3" d="M135.53 78.23c-0.95,-0.22 -3.39,-1.88 -3.61,-2.73l-0.27 0c0,0.78 0.18,1.19 0.18,2.03 0.27,0.14 0.4,0.22 0.64,0.42 0.26,0.21 0.39,0.24 0.62,0.44 0.67,0.58 1.33,1.25 1.79,2 0.11,0.18 0.08,0.18 0.17,0.36 0.53,1.07 0.57,1.46 0.57,2.69 0,0.34 -0.02,0.24 -0.08,0.45l-0.37 1.4c-0.45,-0.01 -0.8,-0.28 -1.12,-0.56l-2.09 -2.32c-0.13,-0.22 -0.18,-0.4 -0.4,-0.48l0 2.29c0.21,0.14 0.37,0.22 0.55,0.42l0.9 1.04c0.67,0.86 0.67,0.82 1.15,1.84 0.42,0.89 0.47,1.97 0.27,2.92l-0.18 0.79c-0.33,0.85 -0.35,1.6 -1.13,0.85l-0.79 -0.8c-0.6,-0.74 -1.24,-1.56 -1.48,-2.58l-0.26 0c0,0.67 -0.12,0.95 -0.2,1.57 -0.11,0.94 0.72,1.48 1.16,2.22 0.41,0.68 0.75,1.44 0.98,2.2 0.37,1.23 0.07,2.81 -0.64,3.87 -0.15,0.23 -0.27,0.34 -0.34,0.63 -0.58,-0.05 -0.97,-0.74 -1.27,-1.2 -0.13,-0.19 -0.25,-0.33 -0.36,-0.52l-0.57 -1.11c-0.2,-0.42 -0.24,-0.83 -0.36,-1.32l-0.18 0c0,1.21 -0.92,1.59 -0.23,2.69l0.63 1.14c0.67,1.26 1.09,2.86 0.62,4.23 -0.31,0.89 -0.41,0.98 -0.9,1.75 -0.2,0.31 -0.3,0.28 -0.38,0.59l-0.44 0c-0.12,-0.44 -0.56,-0.91 -0.78,-1.34 -0.44,-0.87 -0.81,-1.82 -0.9,-2.81l-0.26 0c-0.01,0.4 -0.12,0.49 -0.25,0.81 -0.69,1.6 -0.37,0.74 0.44,3.15 0.36,1.08 0.42,2.56 0.02,3.66 -0.23,0.65 -0.52,1.1 -0.97,1.59 -0.01,0.01 -0.03,0.03 -0.04,0.05 -0.01,0.01 -0.03,0.03 -0.04,0.04 -0.27,0.29 -0.51,0.66 -0.92,0.76 -0.91,-1.37 -1.23,-2.95 -1.23,-4.67l-0.18 0c-0.05,0.65 -0.97,1.34 -0.97,1.94 0,0.49 1.01,3.3 0.46,4.95l-0.65 1.38c-0.31,0.48 -1.33,1.69 -1.92,1.69 -0.35,0 -0.39,-0.51 -0.49,-0.83 -0.39,-1.2 -0.39,-2.27 -0.39,-3.58 -0.43,0.12 -0.6,0.51 -0.84,0.83 -0.13,0.17 -0.18,0.21 -0.28,0.34 -0.25,0.33 -0.17,1 -0.07,1.43 0.08,0.34 0.14,0.09 0.14,0.48l0 1.67c0,0.38 -0.22,1.3 -0.36,1.58 -0.21,0.43 -0.43,0.92 -0.76,1.27l-0.48 0.49c-0.36,0.33 -0.84,0.73 -1.28,0.93 -0.02,0.01 -0.04,0.02 -0.06,0.03 -0.39,0.17 -0.54,0.23 -0.7,-0.29l-0.23 -2.15c0,-0.83 0.34,-1.51 0.35,-2.2 -0.33,0.09 -0.6,0.57 -0.93,0.83 -1.19,0.92 -0.45,1.3 -0.69,2.92 -0.04,0.29 -0.02,0.54 -0.06,0.82 -0.21,1.54 -1.36,3 -2.69,3.74 -0.32,0.18 -0.93,0.49 -1.35,0.5 -0.22,-0.93 -0.14,-2.54 0.11,-3.42l0.32 -1c0.09,-0.24 0.06,0.12 0.1,-0.34 -0.38,0.03 -0.31,0.09 -0.55,0.33 -0.52,0.51 -1.29,0.59 -1.3,1.52 -0.01,1.1 -0.28,2.06 -0.66,3.04 -0.19,0.48 -0.41,0.79 -0.67,1.18 -0.31,0.46 -0.52,0.58 -0.93,0.92 -0.36,0.3 -0.74,0.44 -1.21,0.64l-0.76 0.22c-0.36,0.12 -0.36,0.16 -0.7,0.09 0,-0.42 -0.02,-0.91 -0,-1.32l0.6 -2.22c0.15,-0.39 0.36,-0.58 0.37,-1.04 -0.38,0.1 -0.89,0.49 -1.25,0.68 -0.57,0.31 -0.47,0.23 -0.66,0.92 -0.08,0.28 -0.03,0.02 -0.1,0.34 -0.22,1.08 -0.74,2.52 -1.5,3.35 -0.51,0.56 -1.36,1.18 -2.1,1.42 -0.24,0.08 -0.45,0.11 -0.7,0.18 -0.23,0.07 -1.35,0.39 -1.4,-0.11 -0.03,-0.3 0.39,-1.58 0.53,-1.91 0.85,-2.08 1.7,-3.19 4.39,-4.16 0.83,-0.3 2.56,-1.12 3.33,-1.61 0.26,-0.17 0.12,-0.08 0.42,-0.2 0.62,-0.26 1.22,-0.66 1.81,-1.01 0.17,-0.1 0.28,-0.15 0.46,-0.25l7.24 -5.28c0.57,-0.44 1.03,-0.96 1.54,-1.45l1.95 -1.93c0.14,-0.14 0.22,-0.21 0.35,-0.35l2.28 -2.57c0.7,-1.06 1.59,-2.1 2.32,-3.15 0.76,-1.1 1.5,-2.24 2.14,-3.41 0.93,-1.71 2.07,-3.77 2.78,-5.59l0.77 -1.96c0.06,-0.15 0.12,-0.38 0.17,-0.53l0.19 -0.51c0.26,-0.68 0.5,-1.44 0.68,-2.14 0.1,-0.37 0.18,-0.64 0.29,-1.03 0.07,-0.24 0.08,-0.24 0.16,-0.55l0.39 -1.72c0.06,-0.27 0.08,-0.27 0.14,-0.57 0.05,-0.29 0.06,-0.29 0.14,-0.57 0.12,-0.4 0.11,-0.77 0.2,-1.12 0.09,-0.33 0.08,-0.18 0.1,-0.61 0.02,-0.47 0.01,-0.26 0.11,-0.59 0.18,-0.61 0.33,-2.88 0.46,-3.69 0.11,-0.7 0.15,-4.28 0.14,-5.24 -0.01,-0.5 -0.09,-0.61 -0.1,-1.14 0,-0.38 0.01,-0.77 0.01,-1.15l-0.68 -5.41c-0.16,-0.66 -0.24,-1.32 -0.42,-1.96 -0.1,-0.35 -0.11,-0.61 -0.2,-0.94l-0.26 -0.98c-0.05,-0.21 -0.03,-0.23 -0.09,-0.44 -0.05,-0.17 -0.1,-0.23 -0.16,-0.46l-0.34 -1.16c-0.04,-0.11 -0.04,-0.15 -0.08,-0.27 -0.05,-0.18 -0.08,-0.25 -0.15,-0.47l-0.61 -1.77c-0.03,-0.1 -0.02,-0.1 -0.06,-0.2 -0.05,-0.15 -0.05,-0.11 -0.1,-0.25 -0.07,-0.17 -0.1,-0.27 -0.17,-0.45 -0.06,-0.14 -0.09,-0.21 -0.16,-0.37l-0.53 -1.32c-0.91,-2.01 -2.05,-4.5 -3.28,-6.33 -0.17,-0.25 -0.29,-0.43 -0.44,-0.71 -0.42,-0.77 -1.02,-1.46 -1.49,-2.21 -0.6,-0.96 -1.33,-1.84 -2.04,-2.72 -0.17,-0.21 -0.34,-0.42 -0.52,-0.62 -0.22,-0.25 -0.34,-0.43 -0.57,-0.66l-1.17 -1.29c-0.53,-0.69 -1.69,-1.8 -2.35,-2.41l-0.62 -0.52c-0.28,-0.24 -0.39,-0.31 -0.66,-0.58 -0.81,-0.83 -2.02,-1.74 -2.98,-2.4 -0.17,-0.12 -0.18,-0.16 -0.33,-0.29 -0.23,-0.2 -0.47,-0.31 -0.73,-0.5 -1.42,-1.03 -2.92,-1.89 -4.41,-2.82 -1.27,-0.79 -3.91,-1.84 -4.54,-2.25l-0.1 -0.07c-0.15,-0.14 -0.07,0.02 -0.16,-0.2 0.87,0.07 1.77,0.56 2.56,0.88 0.24,0.1 0.06,0.02 0.24,0.11l2.7 1.18c0.29,0.04 0.41,-0.09 0.63,-0.18l1.6 -0.61c0.87,-0.26 1.78,-0.24 2.67,-0.24 0.56,0 1.59,0.51 2,0.82 0.47,0.34 1.27,0.88 1.43,1.48 -0.3,0.41 -1.57,0.78 -2,0.91 -0.8,0.23 -1.64,0.24 -2.67,0.24 0.11,0.41 0.8,0.61 1.17,0.85l0.65 0.41c0.28,0.09 0.84,-0.17 1.12,-0.26 1.51,-0.43 3.24,-0.53 4.68,0.18 0.07,0.03 0.26,0.12 0.29,0.15 0.57,0.32 1.98,1.6 2.04,2.28 -0.44,0.29 -1.09,0.38 -1.6,0.52 -0.89,0.24 -2.16,0.24 -3.16,0.01 0.08,0.32 0.15,0.29 0.4,0.48 0.18,0.14 0.33,0.25 0.49,0.39 0.42,0.34 0.57,0.61 1.14,0.56 1.14,-0.1 2.25,-0.2 3.37,-0.05 1.11,0.15 1.84,0.6 2.54,1.16 0.44,0.35 1.38,1.54 1.4,2.31 -1.58,0.37 -1.4,0.26 -3.09,0.26 -0.84,0 -1.16,-0.3 -1.76,-0.35 0.23,0.44 0.55,0.68 0.9,1.04 0.55,0.55 0.36,0.65 1.39,0.64 1.15,-0.01 2.02,0.05 3.06,0.38 0.22,0.07 -0.02,-0.01 0.2,0.07l0.19 0.07c1.28,0.46 2.15,1.48 2.69,2.68 0.5,1.12 0.49,1.37 -1.82,1.11 -0.68,-0.08 -1.21,-0.13 -1.89,-0.4 -0.25,-0.1 -0.18,-0.09 -0.37,-0.18 -0.5,-0.23 -0.28,0.17 -0.11,0.38 1.61,2 0.23,1.05 2.6,1.55l0.94 0.21c0.86,0.27 1.6,0.58 2.32,1.11 0.79,0.59 1.27,1.57 1.54,2.51 0.18,0.6 0.17,-0.09 0.17,1.16 -3.48,0 -5.15,-2.18 -4.29,-0.56 0.17,0.32 0.28,0.47 0.44,0.79 0.19,0.37 0.3,0.43 0.69,0.54l0.76 0.21c0.02,0.01 0.04,0.02 0.06,0.02l0.13 0.04c1.09,0.33 2.52,0.93 3.26,1.85 0.86,1.07 1.31,2.29 1.31,3.72 -0.6,0.14 -1.83,-0.28 -2.39,-0.52 -0.58,-0.24 -1.62,-1.06 -2.1,-1.07 0.07,0.31 0.57,1.72 0.76,1.88 0.22,0.18 0.32,0.14 0.62,0.26l1.22 0.54c0.22,0.12 0.36,0.21 0.55,0.33 1.01,0.6 1.96,1.51 2.38,2.65 0.35,0.94 0.37,1.75 0.37,2.8 -0.5,0.12 -0.66,-0.04 -1.23,-0.27 -0.89,-0.36 -1.97,-0.87 -2.63,-1.6 -0.26,-0.29 -0.12,-0.33 -0.46,-0.42 0,0.41 0.17,0.9 0.27,1.23 0.33,1.1 -0.1,0.73 1.43,1.57 0.21,0.12 0.25,0.12 0.44,0.26 0.44,0.34 0.89,0.62 1.28,1.01 0.52,0.53 0.86,1.13 1.21,1.79 0.42,0.79 0.44,2.66 0.05,3.48z"/>
  <path class="fil4" d="M104.33 23.14c-0.22,0 -0.02,-0.14 0,-0.05 0,0 0.25,0.05 0,0.05z"/>
  <polygon class="fil3" points="96.14,131.19 85.98,132.59 86.1,133.47 96.27,132.08 "/>
  <polygon class="fil3" points="77.99,129.26 79.27,133.22 83.43,133.21 80.06,135.65 81.35,139.6 77.99,137.15 74.63,139.6 75.93,135.65 72.56,133.21 76.72,133.22 "/>
  <path class="fil5" d="M92.76 81.64c-0.22,-0.19 -0.06,-0.16 -0.68,-0.65 -0.27,-0.21 -0.47,-0.35 -0.81,-0.51 -0.65,-0.31 -1.38,-0.46 -2.18,-0.51 0.37,1.97 2.31,2.85 4.09,3.04l0 6.29 0.54 0 -0 -6.29c1.82,-0.17 3.73,-1.14 4.09,-3.03 -1.26,0.08 -2.46,0.45 -3.34,1.31 -0.14,0.14 -0.2,0.26 -0.33,0.37 0.19,-1.2 0.04,-2.39 -0.69,-3.07 -0.73,0.69 -0.87,1.87 -0.69,3.08z"/>
  <path class="fil5" d="M91.33 76.55c-1.59,-0.16 -2.62,0.84 -2.56,2.11 0.04,1 0.33,0.85 0.76,0.85 -0.26,-0.61 -0.54,-1.24 0.16,-2.01 0.54,-0.59 1.13,-0.61 1.96,-0.31 0.08,-0.16 0.22,-1.69 1.8,-1.69 0.52,0 0.99,0.26 1.24,0.5 0.47,0.47 0.43,0.96 0.56,1.17 1.63,-0.6 2.9,0.68 2.08,2.34l0.55 -0.01c0.62,-1.28 -0.14,-3.14 -2.3,-2.95 -0.7,-2.15 -3.76,-1.86 -4.23,0.01z"/>
  <path class="fil5" d="M60.51 86.82c0.33,-0.95 0.22,-0.6 -0.1,-2 -0.16,-0.69 -0.31,-1.38 -0.42,-2.04 -0.23,-1.42 -0.73,-2.86 -2.2,-4.03 0.04,0.39 0.92,1.15 1.04,4.31 0.01,0.35 0.03,0.72 0.06,1.06 0.07,0.72 0.02,1.44 0.56,2.18 0.36,0.5 0.66,0.62 1.06,0.52z"/>
  <path class="fil5" d="M60.67 86.8c0.22,0.09 0.51,0.05 0.73,0.05 0.31,0 0.42,-0.08 0.67,-0.44 0.33,-0.48 0.42,-1.01 0.48,-1.45l0.26 -2.18c0.04,-0.24 0.11,-0.49 0.11,-0.74 -0.16,-0.09 -0.53,-0.13 -0.71,-0.1 -0.71,0.13 -1.07,3.87 -1.54,4.86z"/>
  <path class="fil5" d="M60.03 87.8c0.23,0.04 1.4,0.05 1.59,-0 0.06,-0.24 0.01,-0.5 0.03,-0.75 -0.21,-0.09 -1.3,-0.05 -1.6,-0.04l-0.02 0.79z"/>
  <path class="fil5" d="M63.86 82.43l0.41 0.49c0.07,-0.18 0.07,-0.53 0.01,-0.74 -0.24,-0.93 -1.4,-1.19 -2.07,-0.42 0.37,0.1 0.93,-0.05 1.64,0.67z"/>
  <path class="fil5" d="M62.29 80.65c0.42,-0.45 -0.2,-0.69 -0.47,-0.51 -0.16,0.1 -0.15,0.35 -0.06,0.46 0.1,0.12 0.39,0.09 0.53,0.05z"/>
  <path class="fil5" d="M59.87 79.21c0.24,-0.6 -0.41,-0.58 -0.58,-0.43 -0.31,0.28 0.1,0.69 0.58,0.43z"/>
  <path class="fil5" d="M60.7 80.6c0.08,-0.17 0.09,-0.29 -0.03,-0.46 -0.92,-0.35 -0.7,0.93 0.03,0.46z"/>
  <path class="fil5" d="M61.78 80.84c-0.31,0.55 0.35,0.63 0.54,0.47 0.14,-0.11 0.15,-0.37 -0.01,-0.47 -0.11,-0.07 -0.39,-0.04 -0.53,0z"/>
  <path class="fil5" d="M62.36 79.23c0.09,-0.19 0.09,-0.24 0,-0.44 -0.22,-0.13 -0.68,-0.14 -0.67,0.22 0.01,0.36 0.44,0.31 0.66,0.22z"/>
  <path class="fil5" d="M59.24 79.57c-0.16,0.53 0.57,0.51 0.68,0.22 0.15,-0.42 -0.57,-0.57 -0.68,-0.22z"/>
  <path class="fil5" d="M61.5 80.63c0.39,-0.58 -0.55,-0.74 -0.61,-0.31 -0.02,0.13 0.02,0.3 0.19,0.36 0.06,0.02 0.32,-0 0.42,-0.05z"/>
  <path class="fil5" d="M62.35 79.92c0.37,-0.6 -0.66,-0.76 -0.64,-0.21 0.01,0.38 0.56,0.24 0.64,0.21z"/>
  <path class="fil5" d="M60.11 79.91c0.18,0.09 0.37,0.08 0.55,0.02 0.12,-0.18 0.12,-0.28 0.03,-0.46 -0.32,-0.21 -0.81,-0.09 -0.58,0.44z"/>
  <path class="fil5" d="M60.69 82c0.31,-0.51 -0.33,-0.66 -0.55,-0.47 -0.12,0.1 -0.11,0.39 0.03,0.47 0.09,0.05 0.39,0.03 0.52,-0.01z"/>
  <path class="fil5" d="M60.94 79.23c0.14,0.06 0.38,0.09 0.5,0.04 0.17,-0.08 0.12,-0.07 0.14,-0.21 0.05,-0.56 -0.94,-0.45 -0.64,0.18z"/>
  <path class="fil5" d="M60.1 79.22c0.19,0.09 0.41,0.11 0.61,-0.02 0.13,-0.31 0.04,-0.49 -0.29,-0.5 -0.36,-0.01 -0.42,0.21 -0.31,0.51z"/>
  <path class="fil5" d="M61.52 81.99c0.08,-0.17 0.07,-0.29 -0,-0.45 -0.23,-0.12 -0.63,-0.13 -0.64,0.23 -0.01,0.35 0.41,0.33 0.64,0.23z"/>
  <path class="fil5" d="M61.54 79.89c0.06,-0.16 0.04,-0.27 -0.01,-0.41 -0.22,-0.16 -0.67,-0.16 -0.65,0.24 0.02,0.31 0.49,0.3 0.67,0.17z"/>
  <path class="fil5" d="M60.94 82.68c0.19,0.09 0.62,0.18 0.65,-0.18 0.04,-0.48 -0.9,-0.52 -0.65,0.18z"/>
  <path class="fil5" d="M60.19 82.72c0.79,0.18 0.53,-0.46 0.5,-0.5 -0.13,-0.11 -0.94,-0.15 -0.5,0.5z"/>
  <path class="fil5" d="M60.93 81.28c0.19,0.11 0.42,0.12 0.6,0.01 0.06,-0.14 0.06,-0.27 0.01,-0.42 -0.04,-0.06 -0.85,-0.31 -0.62,0.4z"/>
  <path class="fil5" d="M60.09 81.02c-0.01,0.2 -0.12,0.32 0.25,0.35 0.7,0.05 0.43,-0.77 -0.12,-0.56 -0.24,0.09 -0.13,0.13 -0.14,0.21z"/>
  <path class="fil5" d="M60.1 78.2c-0.12,0.48 0.51,0.51 0.65,0.22 0.2,-0.4 -0.55,-0.61 -0.65,-0.22z"/>
  <path class="fil5" d="M61.46 78.55c0.11,-0.17 0.11,-0.31 -0,-0.48 -0.2,-0.09 -0.6,-0.12 -0.59,0.24 0.01,0.33 0.37,0.34 0.59,0.24z"/>
  <path class="fil5" d="M62.25 78.56c0.12,-0.18 0.12,-0.28 0.03,-0.46 -0.2,-0.14 -0.57,-0.15 -0.61,0.17 -0.03,0.36 0.33,0.36 0.57,0.29z"/>
  <path class="fil5" d="M59.9 78.54c0.29,-0.63 -0.6,-0.71 -0.59,-0.23 0,0.41 0.44,0.3 0.59,0.23z"/>
  <path class="fil5" d="M60.2 77.86c0.19,0.07 0.32,0.08 0.49,-0.01 0.1,-0.2 0.12,-0.26 -0.02,-0.47 -0.4,-0.12 -0.71,0.03 -0.48,0.48z"/>
  <path class="fil5" d="M59.96 77.82c0.04,-0.18 0.04,-0.26 -0,-0.44 -0.19,-0.07 -0.32,-0.07 -0.51,-0.01 -0.25,0.46 0.15,0.68 0.51,0.44z"/>
  <path class="fil5" d="M61.45 77.83c0.08,-0.16 0.08,-0.28 -0.01,-0.44 -0.19,-0.07 -0.31,-0.07 -0.5,-0 -0.19,0.4 0.12,0.7 0.51,0.44z"/>
  <path class="fil5" d="M62.18 77.85c0.11,-0.18 0.1,-0.29 0.02,-0.45 -0.16,-0.09 -0.35,-0.09 -0.53,0.01 -0.13,0.42 0.12,0.63 0.51,0.44z"/>
  <path class="fil5" d="M59.83 80.13c-0.16,-0.06 -0.4,-0.05 -0.56,0.05 0.11,0.2 0.19,0.52 0.41,0.51 0.32,-0.01 0.31,-0.38 0.15,-0.56z"/>
  <path class="fil5" d="M60.27 83.42c0.34,0.08 0.66,-0.08 0.42,-0.49 -0.18,-0.08 -0.36,-0.08 -0.52,-0.02 -0.01,0.14 0.04,0.36 0.1,0.52z"/>
  <path class="fil5" d="M62.11 77.16c0.21,-0.51 -0.29,-0.57 -0.47,-0.4 -0.24,0.23 0.01,0.59 0.47,0.4z"/>
  <path class="fil5" d="M60 77.15c0.07,-0.19 0.07,-0.25 -0.02,-0.42 -0.74,-0.3 -0.68,0.76 0.02,0.42z"/>
  <path class="fil5" d="M60.7 77.15c0.18,-0.41 -0.12,-0.58 -0.48,-0.41 -0.16,0.43 0.1,0.58 0.48,0.41z"/>
  <path class="fil5" d="M60.92 77.14c0.18,0.11 0.3,0.11 0.5,0.02 0.27,-0.62 -0.7,-0.68 -0.5,-0.02z"/>
  <path class="fil5" d="M60.95 83.38c0.16,0.08 0.21,0.06 0.34,0.06l0.15 -0.55c-0.17,-0.03 -0.31,-0.05 -0.51,0.06 -0.06,0.2 -0.06,0.25 0.02,0.43z"/>
  <path class="fil5" d="M60.26 76.52c0.44,0.2 0.62,-0.17 0.44,-0.37 -0.14,-0.15 -0.66,-0.14 -0.44,0.37z"/>
  <path class="fil5" d="M60.03 76.12c-0.16,-0.05 -0.27,-0.06 -0.43,0.01 -0.1,0.24 -0.09,0.45 0.21,0.46 0.32,0.01 0.32,-0.23 0.22,-0.47z"/>
  <path class="fil5" d="M61.52 76.43c0.34,0.35 0.73,0.08 0.49,-0.32l-0.43 -0c-0.06,0.16 -0.05,0.19 -0.07,0.32z"/>
  <path class="fil5" d="M60.95 76.54c0.19,0.07 0.22,0.05 0.41,-0 0.09,-0.18 0.09,-0.23 0.01,-0.41 -0.16,-0.05 -0.26,-0.06 -0.43,-0.01 -0.09,0.17 -0.09,0.26 0.01,0.42z"/>
  <path class="fil5" d="M60.42 84.12c0.14,-0 0.11,0.01 0.25,-0.02 0.1,-0.14 0.13,-0.32 0.05,-0.44 -0.08,-0.11 -0.19,-0.12 -0.31,-0.1 -0.11,0.02 0.02,-0.02 -0.11,0.04 0,0.14 0,0.12 0.03,0.25 0.01,0.06 0.01,0.09 0.03,0.14 0.04,0.15 -0,0.02 0.05,0.14z"/>
  <path class="fil5" d="M61.08 84.12c0.04,-0.02 0.05,0.16 0.14,-0.24l0.04 -0.21c0,-0.09 0,-0.03 -0.01,-0.1 -0.55,-0.05 -0.4,0.51 -0.17,0.56z"/>
  <path class="fil5" d="M60.3 75.85c0.16,0.11 0.27,0.11 0.43,-0 0.1,-0.36 -0.23,-0.4 -0.45,-0.24 -0.04,0.17 -0.04,0.07 0.01,0.25z"/>
  <path class="fil5" d="M61.49 75.87c0.24,0.13 0.55,0.08 0.42,-0.29 -0.18,-0.08 -0.23,-0.07 -0.39,-0.01 -0.06,0.16 -0.06,0.15 -0.03,0.3z"/>
  <path class="fil5" d="M59.72 75.87c0.16,0.08 0.24,0.08 0.41,0 0.13,-0.51 -0.37,-0.34 -0.42,-0.28 -0.05,0.17 -0.03,0.1 0.01,0.27z"/>
  <path class="fil5" d="M60.91 75.87c0.17,0.09 0.24,0.09 0.4,-0 0.04,-0.15 0.05,-0.14 -0.02,-0.3 -0.28,-0.08 -0.51,-0.03 -0.38,0.31z"/>
  <path class="fil5" d="M61.82 82.03l0.4 -0.53c-0.36,-0.17 -0.7,0.12 -0.4,0.53z"/>
  <path class="fil5" d="M60.62 84.82c0.24,-0.22 0.2,-0.55 -0.14,-0.56 -0.04,0.1 -0.04,0.04 -0.02,0.15 0.01,0.04 0.02,0.08 0.04,0.14 0.04,0.15 0.01,0.14 0.12,0.27z"/>
  <path class="fil5" d="M60.62 84.82c0.24,-0.22 0.2,-0.55 -0.14,-0.56 -0.04,0.1 -0.04,0.04 -0.02,0.15 0.01,0.04 0.02,0.08 0.04,0.14 0.04,0.15 0.01,0.14 0.12,0.27z"/>
  <path class="fil5" d="M61.41 75.37c0.16,0.04 0.14,0.06 0.31,-0.03l0 -0.26c-0.16,-0.07 -0.17,-0.07 -0.31,-0.03 -0.09,0.16 -0.08,0.16 0,0.33z"/>
  <path class="fil5" d="M59.95 75.36c0.16,0.05 0.13,0.06 0.29,-0.02 0.04,-0.16 0.03,-0.11 0,-0.27 -0.16,-0.08 -0.15,-0.07 -0.3,-0.03 -0.07,0.15 -0.08,0.14 0.01,0.31z"/>
  <path class="fil5" d="M60.98 75.4c0.28,-0.02 0.29,-0.09 0.24,-0.33 -0.15,-0.08 -0.16,-0.06 -0.3,-0.03 -0.07,0.16 -0.07,0.19 0.07,0.36z"/>
  <path class="fil5" d="M60.55 75.42c0.21,-0.1 0.18,-0.16 0.17,-0.35 -0.15,-0.07 -0.16,-0.06 -0.31,-0.03 -0.08,0.23 -0.1,0.27 0.13,0.37z"/>
  <path class="fil5" d="M61.1 84.76c-0.29,-0.14 -0.34,-0.47 -0.02,-0.58 0.06,0.09 0.04,0.03 0.06,0.14 0,0.04 0,0.09 0,0.15 0.01,0.16 0.03,0.14 -0.04,0.3z"/>
  <path class="fil5" d="M59.8 80.83c-0.16,-0.06 -0.12,-0.03 -0.28,0.07 0.11,0.2 0.07,0.49 0.28,0.49 0.32,-0.01 0.16,-0.38 0,-0.56z"/>
  <path class="fil1" d="M80.82 127.65c0.28,-0.35 0.5,-0.57 0.83,-0.96 0.28,-0.34 0.37,-0.51 0.65,-0.83l5.65 -6.35c3.9,-4.32 11.43,-10.7 15.92,-14.15 4.78,-3.67 12.78,-8.75 18.36,-11.54 0.99,-0.49 2.43,-1.39 3.47,-1.68 0.29,-0.99 0.57,-1.98 0.78,-2.97 -3.69,0.35 -8.21,1.61 -11.74,2.52 -7.21,1.86 -14.3,4.6 -20.98,7.62 -11.13,5.04 -19.33,10.96 -28.4,18.11l-6.99 6.33c7.02,3.1 14.54,4.29 22.46,3.92z"/>
  <path class="fil6" d="M125.49 92.75c-7.48,2.18 -40.96,30.95 -43.06,34.44 -0.14,0.24 -0.14,0.36 0.02,0.35 18.7,-1.2 36.93,-15.27 43.04,-34.78z"/>
  <path class="fil7" d="M29.39 89.15c0.01,0.03 0.07,0.01 0.11,0.01 10.8,1.06 20.58,3.01 30.21,7.05 3.44,1.45 2.19,1.57 5.53,0.22 1.87,-0.76 3.77,-1.58 5.65,-2.28 1.39,-0.52 4.75,-1.5 5.74,-2.1 -2.68,-1.26 -7.6,-2.59 -10.7,-3.36 -11.73,-2.9 -24.77,-2.08 -36.98,-2.32l-0.09 -0c-0.01,0 -0.01,0.01 -0.01,0.01 0.14,0.92 0.34,1.85 0.54,2.77z"/>
  <path class="fil8" d="M49.72 104.26c0.9,-0.2 4.38,-2.38 5.56,-3.01 1.08,-0.58 5.09,-2.44 5.67,-2.99 -1.11,-0.83 -5.71,-2.46 -7.41,-3.09 -6.3,-2.35 -16.62,-4.95 -23.91,-5.61l-0.13 -0.01c0.34,1.47 0.77,2.94 1.27,4.41 2.19,0.97 5.13,2.33 7.18,3.33 2.06,0.99 4.06,2.11 5.96,3.27 2.05,1.24 3.84,2.48 5.79,3.7z"/>
  <path class="fil1" d="M40.44 110.59c1.15,-0.82 3.73,-2.63 4.91,-3.39 0.57,-0.37 1.13,-0.75 1.68,-1.09 0.34,-0.21 0.45,-0.27 0.79,-0.49l0.86 -0.78c-0.79,-0.34 -1.57,-1.01 -2.34,-1.53l-7.55 -4.63c-1.8,-1.03 -5.92,-3.1 -7.76,-3.96 2.07,5.74 5.17,11.05 9.41,15.88z"/>
  <path class="fil9" d="M56.08 122.69c2.64,-2.28 6.89,-6.15 9.81,-8.43 5.6,-4.37 11.29,-7.89 18.01,-11.69 11.06,-6.26 28.31,-12.08 41.56,-13.78 0.91,-0.12 1.14,0.03 1.29,-0.7 0.06,-0.83 -0.03,-1.26 -0.65,-1.38 -1.25,-0.24 -5.84,-0.13 -7.37,-0.11 -2.43,0.03 -4.84,0.09 -7.2,0.25 -24.45,1.59 -49.69,12.06 -69.44,25.66 4.14,4.27 8.78,7.7 13.98,10.18z"/>
  <path class="fil1" d="M77 76.26l3.22 0c0.48,0.07 0.79,0.32 0.87,0.86 1.19,-0.06 1.54,0.06 1.56,1.93l-1.32 0.03c-0.17,-1.07 -0.02,-1.54 -0.71,-1.66l0.65 5.17 2.78 0.02c0.76,0.31 1.17,0.8 1.12,1.52l-4.59 -0.01 -0.01 5.5c-0.12,0.6 -0.44,1.09 -1.17,1.33l-2.4 -0.01 -2.4 0.01c-0.73,-0.25 -1.06,-0.73 -1.17,-1.33l-0.01 -5.5 -4.59 0.01c-0.05,-0.72 0.36,-1.21 1.12,-1.52l2.78 -0.02 0.65 -5.17c-0.69,0.11 -0.54,0.59 -0.71,1.66l-1.32 -0.03c0.02,-1.86 0.37,-1.99 1.56,-1.93 0.08,-0.54 0.39,-0.8 0.87,-0.86l3.22 0zm-1.84 6.78c0.33,0 0.6,0.27 0.6,0.6 0,0.33 -0.27,0.6 -0.6,0.6 -0.33,0 -0.6,-0.27 -0.6,-0.6 0,-0.33 0.27,-0.6 0.6,-0.6zm3.74 0c0.33,0 0.6,0.27 0.6,0.6 0,0.33 -0.27,0.6 -0.6,0.6 -0.33,0 -0.6,-0.27 -0.6,-0.6 0,-0.33 0.27,-0.6 0.6,-0.6zm-3.93 6.05l4.1 0c0.22,0 0.4,0.18 0.4,0.4l0 0c0,0.22 -0.18,0.4 -0.4,0.4l-4.1 0c-0.22,0 -0.4,-0.18 -0.4,-0.4l0 -0c0,-0.22 0.18,-0.4 0.4,-0.4zm0 -1.35l4.1 0c0.22,0 0.4,0.18 0.4,0.4l0 0c0,0.22 -0.18,0.4 -0.4,0.4l-4.1 0c-0.22,0 -0.4,-0.18 -0.4,-0.4l0 -0c0,-0.22 0.18,-0.4 0.4,-0.4zm0 -1.35l4.1 0c0.22,0 0.4,0.18 0.4,0.4l0 0c0,0.22 -0.18,0.4 -0.4,0.4l-4.1 0c-0.22,0 -0.4,-0.18 -0.4,-0.4l0 -0c0,-0.22 0.18,-0.4 0.4,-0.4zm0 -1.35l4.1 0c0.22,0 0.4,0.18 0.4,0.4l0 0c0,0.22 -0.18,0.4 -0.4,0.4l-4.1 0c-0.22,0 -0.4,-0.18 -0.4,-0.4l0 -0c0,-0.22 0.18,-0.4 0.4,-0.4zm4.49 -7.55l-4.94 0 -0.69 5.13c0.19,-0.22 0.41,-0.41 0.71,-0.48 1.6,0 3.19,0 4.79,0 0.35,0.07 0.62,0.24 0.81,0.48l-0.69 -5.13z"/>
  <path class="fil1" d="M77.03 80.39c0.74,0 1.34,0.6 1.34,1.34 0,0.03 -0,0.07 -0,0.1l-2.67 0c-0,-0.04 -0,-0.07 -0,-0.1 0,-0.74 0.6,-1.34 1.34,-1.34z"/>
  <path class="fil1" d="M77.03 79.04c0.33,0 0.6,0.27 0.6,0.6 0,0.33 -0.27,0.6 -0.6,0.6 -0.33,0 -0.6,-0.27 -0.6,-0.6 0,-0.33 0.27,-0.6 0.6,-0.6z"/>
  <path class="fil1" d="M81.33 90.25l-0 -3.07 1.52 0.77c0.37,0.16 0.61,-0.29 0.24,-0.54l-1.76 -0.96 0.02 -0.88c0.04,-0.33 0.12,-0.54 0.37,-0.53l1.12 0.66c0.37,0.22 0.62,-0.28 0.42,-0.44l-1.01 -0.66 2.07 0c0.4,0.12 0.65,0.38 0.77,0.75l-1.63 0.9c-0.39,0.15 -0.16,0.73 0.25,0.52l1.47 -0.78 0 1.55 -1.73 0.97c-0.34,0.09 -0.23,0.68 0.19,0.58l1.54 -0.82 -0.01 1.95 -0.01 0.44c-0.04,0.33 -0.12,0.55 -0.37,0.53l-1.12 -0.66c-0.36,-0.22 -0.62,0.28 -0.41,0.43l1.01 0.66 -2.07 0c-0.4,-0.12 -0.65,-0.38 -0.77,-0.75l1.63 -0.9c0.39,-0.15 0.16,-0.73 -0.25,-0.52l-1.47 0.78 0 -0z"/>
  <path class="fil1" d="M68.91 90.25l-0 -3.07 1.52 0.77c0.37,0.16 0.61,-0.29 0.24,-0.54l-1.76 -0.96 0.02 -0.88c0.04,-0.33 0.12,-0.54 0.37,-0.53l1.12 0.66c0.37,0.22 0.62,-0.28 0.42,-0.44l-1.01 -0.66 2.07 0c0.4,0.12 0.65,0.38 0.77,0.75l-1.63 0.9c-0.39,0.15 -0.16,0.73 0.25,0.52l1.47 -0.78 0 1.55 -1.73 0.97c-0.34,0.09 -0.23,0.68 0.19,0.58l1.54 -0.82 -0.02 1.95 -0.01 0.44c-0.04,0.33 -0.12,0.55 -0.37,0.53l-1.12 -0.66c-0.36,-0.22 -0.62,0.28 -0.41,0.43l1.01 0.66 -2.07 0c-0.4,-0.12 -0.65,-0.38 -0.77,-0.75l1.63 -0.9c0.39,-0.15 0.16,-0.73 -0.25,-0.52l-1.47 0.78 0 -0z"/>
  <path class="fil1" d="M76.59 76.56l0.82 0c0.01,-0.07 -0.32,-1.65 -0.37,-1.85l-0.09 -0c-0.06,0.31 -0.12,0.62 -0.18,0.93 -0.03,0.14 -0.19,0.85 -0.18,0.93z"/>
  <path class="fil1" d="M76.28 75.31c0.04,-0.02 0.02,-0.02 0.05,-0.05 0.02,-0.02 0.03,-0.02 0.05,-0.05 -0.14,-0.2 -0.3,-0.34 -0.29,-0.73 0,-0.22 0.09,-0.49 0.24,-0.65 0.02,-0.03 0.04,-0.04 0.05,-0.08 -0.02,-0.04 -0.06,-0.07 -0.1,-0.09 -0.07,0.04 -0.2,0.22 -0.24,0.34 -0.06,0.15 -0.1,0.3 -0.11,0.48 0,0.17 0.04,0.35 0.1,0.48 0.05,0.11 0.18,0.32 0.25,0.34z"/>
  <path class="fil1" d="M77.62 73.76c0.02,0.06 0.49,0.48 0.21,1.14 -0.07,0.15 -0.13,0.2 -0.21,0.31 0.02,0.03 0.07,0.09 0.12,0.1 0.32,-0.36 0.43,-0.81 0.23,-1.31 -0.05,-0.11 -0.17,-0.3 -0.24,-0.34 -0.04,0.02 -0.07,0.05 -0.1,0.09z"/>
  <path class="fil1" d="M77.41 73.97c0.02,0.04 0.05,0.06 0.07,0.1 0.02,0.03 0.05,0.07 0.07,0.11 0.21,0.45 -0.13,0.78 -0.14,0.82 0.03,0.03 0.06,0.07 0.1,0.09 0.14,-0.1 0.26,-0.39 0.26,-0.61 -0,-0.12 -0.03,-0.25 -0.08,-0.36 -0.04,-0.09 -0.11,-0.21 -0.19,-0.25 -0.03,0.02 -0.08,0.06 -0.09,0.1z"/>
  <path class="fil1" d="M76.49 75.1c0.04,-0.01 0.08,-0.06 0.1,-0.09 -0.01,-0.03 -0.41,-0.45 -0.08,-0.93 0.03,-0.04 0.06,-0.07 0.08,-0.11 -0.02,-0.04 -0.06,-0.07 -0.09,-0.1 -0.14,0.07 -0.26,0.39 -0.27,0.6 -0,0.22 0.11,0.52 0.25,0.62z"/>
  <path class="fil1" d="M76.7 74.89l0.1 -0.1c-0.02,-0.04 -0.02,-0.03 -0.04,-0.06 -0.19,-0.28 0.02,-0.51 0.04,-0.56 -0.02,-0.04 -0.06,-0.07 -0.1,-0.09 -0.04,0.02 -0.09,0.1 -0.12,0.16 -0.1,0.21 -0.05,0.53 0.12,0.65z"/>
  <path class="fil1" d="M77.2 74.17c0.02,0.05 0.06,0.08 0.08,0.13 0.02,0.05 0.04,0.11 0.04,0.18 0,0.06 -0.02,0.13 -0.04,0.18 -0.03,0.07 -0.07,0.09 -0.08,0.13l0.1 0.1c0.21,-0.15 0.25,-0.57 0.01,-0.81 -0.05,0.01 -0.08,0.06 -0.11,0.09z"/>
  <path class="fil1" d="M76.95 74.35c-0.16,0.06 -0.1,0.34 0.1,0.28 0.19,-0.06 0.08,-0.36 -0.1,-0.28z"/>
  <path class="fil10" d="M78.96 65.84l-0.04 0.69 0 0 -1.22 -0.04 -1.22 0.01 -1.21 0.07 -1.19 0.12 -1.18 0.17 -1.17 0.22 -1.15 0.27 -1.13 0.32 -1.12 0.37 -1.1 0.41 -1.08 0.46 -1.06 0.5 -1.03 0.54 -1.01 0.59 -0.98 0.63 -0.96 0.66 -0.93 0.7 -0.9 0.74 -0.87 0.77 -0.84 0.81 -0.81 0.84 -0.77 0.87 -0.74 0.9 -0.7 0.93 -0.67 0.96 -0.63 0.99 -0.59 1.01 -0.55 1.03 -0.5 1.06 -0.46 1.08 -0.42 1.1 -0.37 1.12 -0.66 -0.2 0.38 -1.15 0.43 -1.13 0.47 -1.1 0.52 -1.08 0.56 -1.06 0.6 -1.03 0.64 -1.01 0.68 -0.98 0.72 -0.95 0.76 -0.92 0.79 -0.89 0.83 -0.86 0.86 -0.83 0.89 -0.79 0.92 -0.75 0.95 -0.72 0.98 -0.68 1.01 -0.64 1.03 -0.6 1.06 -0.56 1.08 -0.51 1.1 -0.47 1.13 -0.42 1.14 -0.38 1.16 -0.33 1.18 -0.28 1.2 -0.23 1.21 -0.17 1.22 -0.12 1.24 -0.07 1.25 -0.01 1.26 0.05zm26.09 21.59l-0.67 0.17 -0.3 -1.07 -0.34 -1.05 -0.38 -1.03 -0.42 -1.01 -0.45 -1 -0.49 -0.98 -0.53 -0.96 -0.56 -0.93 -0.6 -0.91 -0.63 -0.88 -0.67 -0.86 -0.7 -0.83 -0.73 -0.81 -0.76 -0.78 -0.79 -0.75 -0.82 -0.72 -0.85 -0.69 -0.87 -0.65 -0.9 -0.62 -0.92 -0.59 -0.95 -0.55 -0.97 -0.51 -1 -0.48 -1.02 -0.44 -1.04 -0.4 -1.06 -0.36 -1.08 -0.32 -1.09 -0.27 -1.11 -0.23 -1.13 -0.18 -1.14 -0.14 -1.16 -0.09 0.04 -0.69 1.19 0.1 1.17 0.14 1.16 0.19 1.14 0.23 1.12 0.28 1.1 0.32 1.08 0.37 1.06 0.41 1.04 0.45 1.02 0.49 1 0.53 0.97 0.56 0.95 0.6 0.92 0.64 0.9 0.67 0.87 0.7 0.84 0.73 0.81 0.77 0.78 0.8 0.75 0.83 0.71 0.85 0.68 0.88 0.65 0.91 0.61 0.93 0.58 0.96 0.54 0.98 0.5 1 0.47 1.02 0.43 1.04 0.39 1.06 0.35 1.08 0.3 1.09z"/>
  <path class="fil11" d="M110.33 82.49l-5.81 4.32c-0.36,-1.27 -0.8,-2.53 -1.35,-3.78l7.16 -0.54z"/>
  <path class="fil11" d="M106.94 75.6l-4.73 5.48c-0.62,-1.16 -1.33,-2.3 -2.14,-3.4l6.87 -2.08z"/>
  <path class="fil11" d="M102.14 69.62l-3.43 6.38c-0.86,-1 -1.8,-1.96 -2.83,-2.85l6.26 -3.53z"/>
  <path class="fil11" d="M96.16 64.81l-1.96 6.97c-1.06,-0.79 -2.18,-1.52 -3.38,-2.17l5.34 -4.8z"/>
  <path class="fil11" d="M89.28 61.43l-0.4 7.23c-1.21,-0.54 -2.46,-1.01 -3.77,-1.38l4.17 -5.85z"/>
  <path class="fil11" d="M81.82 59.61l1.18 7.15c-1.29,-0.27 -2.62,-0.45 -3.98,-0.53l2.8 -6.61z"/>
  <path class="fil11" d="M74.15 59.46l2.7 6.72c-1.32,0.02 -2.65,0.12 -4,0.34l1.3 -7.06z"/>
  <path class="fil11" d="M66.63 60.98l4.09 5.97c-1.28,0.31 -2.56,0.7 -3.83,1.21l-0.27 -7.18z"/>
  <path class="fil11" d="M59.62 64.09l5.29 4.94c-1.19,0.58 -2.35,1.24 -3.48,2.01l-1.82 -6.95z"/>
  <path class="fil11" d="M53.45 68.66l6.24 3.67c-1.03,0.82 -2.02,1.72 -2.96,2.72l-3.28 -6.39z"/>
  <path class="fil11" d="M48.42 74.45l6.89 2.23c-0.83,1.03 -1.6,2.12 -2.3,3.29l-4.59 -5.52z"/>
  <path class="fil11" d="M44.77 81.19l7.21 0.68c-0.59,1.18 -1.11,2.42 -1.53,3.71l-5.68 -4.4z"/>
  <path class="fil12 str1" d="M77.94 28.14c27.5,0 49.8,22.3 49.8,49.8 0,27.5 -22.29,49.8 -49.8,49.8 -27.5,0 -49.8,-22.3 -49.8,-49.8 0,-27.5 22.3,-49.8 49.8,-49.8z"/>
  <path class="fil13" d="M9.94 64.95l-0.45 3.52 1.07 0.14 0.29 -2.3 0.02 0c1.13,0.14 1.79,1.2 1.63,2.48 -0.2,1.59 -1.55,2.59 -3,2.41 -1.54,-0.2 -2.51,-1.62 -2.34,-2.98 0.09,-0.71 0.55,-1.45 1.19,-1.95l-0.89 -0.77c-0.77,0.61 -1.36,1.63 -1.48,2.56 -0.27,2.12 1.25,4.05 3.36,4.32 2.11,0.27 4.05,-1.22 4.32,-3.39 0.25,-1.93 -0.95,-3.71 -3.15,-3.99 -0.21,-0.03 -0.41,-0.04 -0.58,-0.04zm5.64 -5.96l-3.41 1.45c-0.08,-0.9 -0.76,-1.69 -1.7,-1.91 -1.3,-0.3 -2.6,0.57 -2.92,1.93l-0.52 2.27 7.3 1.68 0.26 -1.15 -2.82 -0.65 0.21 -0.9 3.27 -1.31 0.32 -1.4zm-4.76 3.41l-2.39 -0.55 0.27 -1.15c0.16,-0.68 0.8,-1.15 1.47,-0.99 0.65,0.15 1.08,0.85 0.91,1.54l-0.27 1.15zm0.51 -10.4l-1.1 -0.37 -1.43 4.23 7.09 2.4 1.43 -4.23 -1.11 -0.37 -1.05 3.11 -1.96 -0.66 0.91 -2.68 -1.11 -0.38 -0.91 2.68 -1.81 -0.61 1.05 -3.11zm2.58 -5.72l-1.06 -0.48 -1.84 4.07 6.82 3.08 1.84 -4.07 -1.07 -0.48 -1.35 2.99 -1.89 -0.85 1.17 -2.58 -1.07 -0.48 -1.17 2.58 -1.74 -0.79 1.35 -2.99zm2.25 -6.47l4.23 2.43 -6.71 1.65 -0.03 0.06 6.61 3.8 0.59 -1.02 -4.23 -2.43 6.72 -1.67 0.02 -0.04 -6.62 -3.8 -0.59 1.02zm11.76 -3.36c0.69,-0.88 0.81,-1.83 0.71,-2.73l-1.17 -0.05c0.08,0.72 -0.02,1.48 -0.5,2.08 -0.83,1.06 -2.56,1.37 -3.75,0.43 -1.18,-0.93 -1.32,-2.69 -0.48,-3.75 0.45,-0.58 1.15,-0.9 1.89,-0.99l-0.3 -1.11c-1.02,0.14 -1.89,0.59 -2.51,1.34 -1.3,1.66 -1,4.13 0.66,5.44 1.67,1.31 4.13,1.01 5.44,-0.66zm4.58 -4.99c1.54,-1.47 1.61,-3.93 0.15,-5.47 -1.48,-1.55 -3.95,-1.61 -5.48,-0.14 -1.54,1.47 -1.6,3.94 -0.12,5.49 1.46,1.53 3.92,1.59 5.46,0.12zm-0.82 -0.86c-1.07,1.02 -2.77,0.98 -3.79,-0.09 -1.02,-1.07 -0.99,-2.78 0.08,-3.8 1.07,-1.02 2.78,-0.98 3.8,0.09 1.02,1.07 0.97,2.78 -0.1,3.79zm8.8 -6l-3.56 -1.01c0.5,-0.75 0.47,-1.79 -0.13,-2.55 -0.82,-1.05 -2.38,-1.19 -3.48,-0.33l-1.83 1.44 4.63 5.88 0.92 -0.73 -1.79 -2.28 0.72 -0.57 3.37 1.03 1.13 -0.89zm-5.84 -0.33l-1.51 -1.93 0.93 -0.73c0.55,-0.43 1.34,-0.4 1.77,0.15 0.41,0.53 0.3,1.34 -0.26,1.77l-0.93 0.73zm6.52 -0.07l0.99 -0.64 -1.4 -2.19 1.12 -0.72c1.22,-0.78 1.64,-2.34 0.92,-3.46 -0.73,-1.14 -2.33,-1.44 -3.56,-0.66l-2.11 1.35 4.04 6.3zm0.08 -4.52l-1.12 0.71 -1.38 -2.15 1.12 -0.72c0.68,-0.43 1.54,-0.3 1.93,0.3 0.38,0.59 0.13,1.43 -0.54,1.86zm8.26 -0.15c1.9,-0.97 2.66,-3.31 1.69,-5.2 -0.97,-1.9 -3.32,-2.66 -5.22,-1.69 -1.9,0.97 -2.65,3.32 -1.67,5.22 0.97,1.89 3.31,2.64 5.2,1.67zm-0.54 -1.06c-1.31,0.67 -2.93,0.15 -3.61,-1.16 -0.68,-1.32 -0.16,-2.95 1.16,-3.62 1.31,-0.67 2.94,-0.15 3.62,1.17 0.67,1.31 0.14,2.94 -1.17,3.61zm10.28 -2.85l-3.02 -2.14c0.72,-0.54 1.04,-1.53 0.73,-2.45 -0.43,-1.26 -1.85,-1.92 -3.17,-1.47l-2.21 0.75 2.4 7.09 1.11 -0.38 -0.93 -2.74 0.87 -0.3 2.84 2.09 1.37 -0.46zm-5.4 -2.26l-0.78 -2.32 1.12 -0.38c0.66,-0.22 1.4,0.07 1.62,0.73 0.22,0.63 -0.16,1.36 -0.84,1.59l-1.12 0.38zm11.21 0.75l1.24 -0.29 -5.15 -6.66 -0.07 0.02 -1.71 8.24 1.24 -0.29 0.24 -1.23 3.46 -0.8 0.75 1zm-3.99 -1.29l0.63 -3.15 1.94 2.56 -2.57 0.59zm8.84 -6.91l-5.15 0.65 0.15 1.16 1.99 -0.25 0.8 6.27 1.17 -0.15 -0.8 -6.27 1.99 -0.25 -0.15 -1.16zm5.88 0.64l-0.09 -1.15 -4.45 0.34 0.57 7.47 4.45 -0.34 -0.09 -1.17 -3.28 0.25 -0.16 -2.07 2.83 -0.21 -0.09 -1.17 -2.83 0.21 -0.15 -1.91 3.28 -0.25zm4.5 6.44l1.18 0.03 0.19 -7.49 -1.18 -0.03 -0.19 7.49zm8.36 -6.77l-0.62 4.84 -4.11 -5.56 -0.07 -0.01 -0.96 7.57 1.17 0.15 0.62 -4.84 4.13 5.56 0.05 0.01 0.96 -7.57 -1.17 -0.15zm1.6 7.86l1.15 0.27 1.68 -7.3 -1.15 -0.26 -1.68 7.3zm9.08 -5.31l-4.99 -1.42 -0.32 1.12 1.93 0.55 -1.73 6.08 1.14 0.32 1.73 -6.08 1.93 0.55 0.32 -1.12zm-1.14 7.48l1.12 0.38 2.4 -7.09 -1.12 -0.38 -2.4 7.09zm7.26 2.89l1.16 0.52 -0.06 -8.42 -0.06 -0.03 -6.36 5.52 1.16 0.52 0.93 -0.83 3.23 1.46 -0.01 1.25zm-2.4 -3.44l2.41 -2.12 -0.01 3.21 -2.4 -1.09zm11.04 -0.54l-4.62 -2.37 -0.53 1.04 1.79 0.91 -2.88 5.63 1.05 0.54 2.88 -5.63 1.79 0.91 0.53 -1.04zm-2.67 7.25l0.99 0.64 4.04 -6.3 -0.99 -0.64 -4.04 6.3zm10.72 -1.78l-4.76 2.84 1.12 -5.42 -1.02 -0.72 -1.63 8.22 0.06 0.04 7.25 -4.23 -1.03 -0.73zm4.74 5.62l0.76 -0.88 -3.37 -2.92 -4.9 5.66 3.37 2.92 0.77 -0.88 -2.48 -2.15 1.36 -1.57 2.14 1.86 0.77 -0.89 -2.14 -1.86 1.25 -1.45 2.48 2.15zm-1.1 8.82l0.7 0.81c0.35,-1.24 1.37,-2.86 2.46,-3.8 1.04,-0.9 2.71,-1.69 3.98,-1.9l-0.7 -0.8c-1.58,0.18 -2.93,0.93 -4.01,1.86 -1.13,0.98 -2.08,2.27 -2.44,3.83zm1.82 1.23l0.73 0.93 2.04 -1.61 0.82 1.05c0.9,1.14 2.48,1.4 3.53,0.58 1.07,-0.84 1.21,-2.46 0.31,-3.6l-1.55 -1.97 -5.89 4.63zm4.5 -0.35l-0.82 -1.05 2.01 -1.58 0.82 1.05c0.5,0.63 0.45,1.51 -0.12,1.95 -0.55,0.43 -1.41,0.27 -1.9,-0.37zm8.01 5.12l-5.48 0.85 3.07 -4.61 -0.67 -1.05 -4.58 7.02 0.04 0.07 8.3 -1.22 -0.68 -1.06zm3.46 6.73l-2.37 -4.62 -1.04 0.53 0.91 1.79 -5.62 2.88 0.54 1.05 5.63 -2.88 0.91 1.79 1.04 -0.53zm-6.54 5.08c1.55,0.41 3.13,0.17 4.53,-0.38 1.33,-0.52 2.62,-1.37 3.51,-2.69l-0.39 -0.99c-0.78,1.02 -2.25,2.14 -3.53,2.65 -1.34,0.53 -3.24,0.69 -4.51,0.42l0.39 1zm3.71 5.48l6.08 -1.73 -0.32 -1.13 -7.2 2.05 1.23 4.35 1.13 -0.32 -0.91 -3.21zm8.08 5.99l-1.17 -5.06 -1.14 0.26 0.45 1.95 -6.16 1.42 0.27 1.15 6.16 -1.42 0.45 1.95 1.14 -0.26zm0.53 3.81l-0.27 -2.11 -7.43 0.94 0.27 2.12c0.3,2.36 1.91,3.65 4.19,3.36 2.3,-0.29 3.55,-1.94 3.24,-4.3zm-6.27 0.81l-0.12 -0.96 5.11 -0.65 0.12 0.95c0.2,1.63 -0.65,2.78 -2.23,2.98 -1.57,0.2 -2.68,-0.69 -2.88,-2.31l0 -0z"/>
  <path class="fil13" d="M45.73 145.56c-0.18,-0.9 -0.22,-1.87 -0.13,-2.91 0.09,-1.04 0.38,-2.02 0.85,-2.94 0.42,-0.81 0.95,-1.52 1.59,-2.13 0.75,-0.7 1.67,-1.32 2.75,-1.84l0.66 0.34c-0.78,0.5 -1.31,0.86 -1.6,1.1 -0.45,0.36 -0.87,0.77 -1.25,1.22 -0.48,0.56 -0.88,1.16 -1.21,1.81 -0.85,1.64 -1.18,3.54 -1,5.7l-0.66 -0.34zm4.81 -0.49l2.67 -8.01 3.02 1.01c0.53,0.18 0.93,0.34 1.19,0.48 0.37,0.2 0.66,0.43 0.87,0.7 0.2,0.27 0.33,0.6 0.39,0.99 0.05,0.38 0.01,0.77 -0.12,1.17 -0.23,0.68 -0.63,1.18 -1.22,1.51 -0.59,0.33 -1.45,0.3 -2.59,-0.08l-2.05 -0.68 -1.09 3.27 -1.06 -0.35zm2.46 -3.85l2.07 0.69c0.69,0.23 1.21,0.26 1.59,0.1 0.37,-0.16 0.63,-0.47 0.79,-0.93 0.11,-0.33 0.12,-0.65 0.03,-0.94 -0.09,-0.3 -0.26,-0.53 -0.51,-0.7 -0.16,-0.11 -0.49,-0.24 -0.96,-0.4l-2.05 -0.68 -0.95 2.86zm9.26 7.34l-1.29 -8.95 1.18 0.27 0.76 6.47c0.06,0.52 0.1,1 0.12,1.44 0.23,-0.42 0.48,-0.84 0.75,-1.24l3.59 -5.47 1.11 0.25 -5.09 7.49 -1.13 -0.26zm9.46 1.4l0.56 -7.43 -2.77 -0.21 0.08 -0.99 6.66 0.51 -0.07 0.99 -2.77 -0.21 -0.56 7.43 -1.12 -0.08zm7.62 2.69l-0.74 0.02c1.11,-1.87 1.64,-3.72 1.6,-5.56 -0.02,-0.72 -0.11,-1.43 -0.29,-2.14 -0.14,-0.57 -0.34,-1.12 -0.58,-1.65 -0.16,-0.34 -0.48,-0.91 -0.96,-1.7l0.74 -0.02c0.74,0.95 1.29,1.9 1.66,2.86 0.31,0.83 0.48,1.7 0.5,2.61 0.02,1.04 -0.15,2.04 -0.53,3.02 -0.37,0.97 -0.84,1.83 -1.39,2.56zm8.49 -3.11l-1.45 -8.31 1.1 -0.19 1.28 7.34 4.09 -0.72 0.17 0.98 -5.19 0.91zm9.62 -2.06l-2.05 -7.16 -2.67 0.76 -0.27 -0.95 6.42 -1.84 0.27 0.95 -2.67 0.77 2.05 7.16 -1.08 0.31zm6.7 -2.14l-3.47 -7.69 2.65 -1.2c0.6,-0.27 1.07,-0.44 1.42,-0.51 0.49,-0.1 0.95,-0.08 1.38,0.04 0.56,0.16 1.06,0.46 1.5,0.9 0.44,0.44 0.82,1.01 1.13,1.69 0.26,0.58 0.43,1.13 0.5,1.64 0.07,0.51 0.06,0.97 -0.02,1.36 -0.08,0.39 -0.21,0.73 -0.39,1.01 -0.18,0.28 -0.42,0.55 -0.74,0.8 -0.32,0.25 -0.71,0.48 -1.18,0.69l-2.77 1.25zm0.61 -1.36l1.64 -0.74c0.51,-0.23 0.88,-0.45 1.13,-0.68 0.25,-0.23 0.41,-0.46 0.51,-0.71 0.13,-0.35 0.17,-0.76 0.12,-1.23 -0.05,-0.47 -0.21,-0.99 -0.47,-1.58 -0.36,-0.81 -0.78,-1.37 -1.24,-1.68 -0.46,-0.31 -0.91,-0.46 -1.35,-0.44 -0.32,0.02 -0.78,0.16 -1.39,0.44l-1.61 0.73 2.66 5.89z"/>
 </g>
</svg>
